<svg width="1024" height="753" viewBox="0 0 1024 753" fill="none" xmlns="http://www.w3.org/2000/svg">
<g clip-path="url(#clip0_122_130)">
<rect width="1024" height="753" fill="#121214"/>
<g opacity="0.2" filter="url(#filter0_f_122_130)">
<ellipse cx="511.5" cy="5" rx="670.5" ry="350" fill="#338AF3"/>
</g>
<path d="M32.0349 241C33.5302 241 34.6622 241.63 35.4308 242.891C36.2134 244.138 36.6047 245.953 36.6047 248.336C36.6047 250.719 36.2134 252.541 35.4308 253.802C34.6622 255.063 33.5302 255.693 32.0349 255.693C30.5536 255.693 29.4216 255.063 28.639 253.802C27.8564 252.541 27.4651 250.719 27.4651 248.336C27.4651 245.967 27.8564 244.152 28.639 242.891C29.4216 241.63 30.5536 241 32.0349 241ZM28.9534 248.336C28.9534 250.026 29.1072 251.35 29.4146 252.306L34.0683 243.099C33.5791 242.448 32.9013 242.122 32.0349 242.122C31.0706 242.122 30.316 242.635 29.771 243.66C29.2259 244.672 28.9534 246.23 28.9534 248.336ZM32.0349 254.55C33.0131 254.55 33.7748 254.044 34.3198 253.033C34.8648 252.008 35.1373 250.442 35.1373 248.336C35.1373 246.549 34.9627 245.163 34.6133 244.18L29.9596 253.469C30.4627 254.19 31.1545 254.55 32.0349 254.55Z" fill="url(#paint0_linear_122_130)" fill-opacity="0.6"/>
<path d="M33.2926 278.135H36.3741V279.236H28.3874V278.135H31.9511V266.455L28.5551 268.471L27.9682 267.536L32.1607 264.959H33.2926V278.135Z" fill="url(#paint1_linear_122_130)" fill-opacity="0.6"/>
<path d="M32.0349 288.502C33.5302 288.502 34.6622 289.133 35.4308 290.393C36.2134 291.64 36.6047 293.455 36.6047 295.838C36.6047 298.221 36.2134 300.043 35.4308 301.304C34.6622 302.565 33.5302 303.195 32.0349 303.195C30.5536 303.195 29.4216 302.565 28.639 301.304C27.8564 300.043 27.4651 298.221 27.4651 295.838C27.4651 293.469 27.8564 291.654 28.639 290.393C29.4216 289.133 30.5536 288.502 32.0349 288.502ZM28.9534 295.838C28.9534 297.529 29.1072 298.852 29.4146 299.808L34.0683 290.601C33.5791 289.95 32.9013 289.624 32.0349 289.624C31.0706 289.624 30.316 290.137 29.771 291.162C29.2259 292.174 28.9534 293.732 28.9534 295.838ZM32.0349 302.052C33.0131 302.052 33.7748 301.546 34.3198 300.535C34.8648 299.51 35.1373 297.944 35.1373 295.838C35.1373 294.051 34.9627 292.665 34.6133 291.682L29.9596 300.971C30.4627 301.692 31.1545 302.052 32.0349 302.052Z" fill="url(#paint2_linear_122_130)" fill-opacity="0.6"/>
<path d="M33.2926 325.637H36.3741V326.738H28.3874V325.637H31.9511V313.957L28.5551 315.973L27.9682 315.038L32.1607 312.461H33.2926V325.637Z" fill="url(#paint3_linear_122_130)" fill-opacity="0.6"/>
<path d="M33.2926 349.388H36.3741V350.489H28.3874V349.388H31.9511V337.708L28.5551 339.724L27.9682 338.789L32.1607 336.212H33.2926V349.388Z" fill="url(#paint4_linear_122_130)" fill-opacity="0.6"/>
<path d="M32.0349 359.755C33.5302 359.755 34.6622 360.386 35.4308 361.646C36.2134 362.893 36.6047 364.708 36.6047 367.091C36.6047 369.474 36.2134 371.296 35.4308 372.557C34.6622 373.818 33.5302 374.448 32.0349 374.448C30.5536 374.448 29.4216 373.818 28.639 372.557C27.8564 371.296 27.4651 369.474 27.4651 367.091C27.4651 364.722 27.8564 362.907 28.639 361.646C29.4216 360.386 30.5536 359.755 32.0349 359.755ZM28.9534 367.091C28.9534 368.782 29.1072 370.105 29.4146 371.061L34.0683 361.854C33.5791 361.203 32.9013 360.878 32.0349 360.878C31.0706 360.878 30.316 361.39 29.771 362.415C29.2259 363.427 28.9534 364.985 28.9534 367.091ZM32.0349 373.305C33.0131 373.305 33.7748 372.8 34.3198 371.788C34.8648 370.763 35.1373 369.197 35.1373 367.091C35.1373 365.304 34.9627 363.919 34.6133 362.935L29.9596 372.225C30.4627 372.945 31.1545 373.305 32.0349 373.305Z" fill="url(#paint5_linear_122_130)" fill-opacity="0.6"/>
<path d="M33.2926 396.89H36.3741V397.992H28.3874V396.89H31.9511V385.21L28.5551 387.226L27.9682 386.291L32.1607 383.714H33.2926V396.89Z" fill="url(#paint6_linear_122_130)" fill-opacity="0.6"/>
<path d="M32.0349 407.257C33.5302 407.257 34.6622 407.888 35.4308 409.149C36.2134 410.396 36.6047 412.211 36.6047 414.594C36.6047 416.977 36.2134 418.798 35.4308 420.059C34.6622 421.32 33.5302 421.95 32.0349 421.95C30.5536 421.95 29.4216 421.32 28.639 420.059C27.8564 418.798 27.4651 416.977 27.4651 414.594C27.4651 412.224 27.8564 410.409 28.639 409.149C29.4216 407.888 30.5536 407.257 32.0349 407.257ZM28.9534 414.594C28.9534 416.284 29.1072 417.607 29.4146 418.563L34.0683 409.356C33.5791 408.705 32.9013 408.38 32.0349 408.38C31.0706 408.38 30.316 408.892 29.771 409.918C29.2259 410.929 28.9534 412.488 28.9534 414.594ZM32.0349 420.807C33.0131 420.807 33.7748 420.302 34.3198 419.29C34.8648 418.265 35.1373 416.699 35.1373 414.594C35.1373 412.806 34.9627 411.421 34.6133 410.437L29.9596 419.727C30.4627 420.447 31.1545 420.807 32.0349 420.807Z" fill="url(#paint7_linear_122_130)" fill-opacity="0.6"/>
<path d="M32.0349 431.008C33.5302 431.008 34.6622 431.639 35.4308 432.9C36.2134 434.147 36.6047 435.962 36.6047 438.345C36.6047 440.728 36.2134 442.549 35.4308 443.81C34.6622 445.071 33.5302 445.701 32.0349 445.701C30.5536 445.701 29.4216 445.071 28.639 443.81C27.8564 442.549 27.4651 440.728 27.4651 438.345C27.4651 435.975 27.8564 434.16 28.639 432.9C29.4216 431.639 30.5536 431.008 32.0349 431.008ZM28.9534 438.345C28.9534 440.035 29.1072 441.358 29.4146 442.314L34.0683 433.107C33.5791 432.456 32.9013 432.131 32.0349 432.131C31.0706 432.131 30.316 432.643 29.771 433.669C29.2259 434.68 28.9534 436.239 28.9534 438.345ZM32.0349 444.558C33.0131 444.558 33.7748 444.053 34.3198 443.041C34.8648 442.016 35.1373 440.451 35.1373 438.345C35.1373 436.557 34.9627 435.172 34.6133 434.188L29.9596 443.478C30.4627 444.198 31.1545 444.558 32.0349 444.558Z" fill="url(#paint8_linear_122_130)" fill-opacity="0.6"/>
<path d="M33.2926 468.143H36.3741V469.245H28.3874V468.143H31.9511V456.464L28.5551 458.48L27.9682 457.544L32.1607 454.967H33.2926V468.143Z" fill="url(#paint9_linear_122_130)" fill-opacity="0.6"/>
<path d="M32.0349 478.511C33.5302 478.511 34.6622 479.141 35.4308 480.402C36.2134 481.649 36.6047 483.464 36.6047 485.847C36.6047 488.23 36.2134 490.052 35.4308 491.312C34.6622 492.573 33.5302 493.204 32.0349 493.204C30.5536 493.204 29.4216 492.573 28.639 491.312C27.8564 490.052 27.4651 488.23 27.4651 485.847C27.4651 483.478 27.8564 481.663 28.639 480.402C29.4216 479.141 30.5536 478.511 32.0349 478.511ZM28.9534 485.847C28.9534 487.537 29.1072 488.86 29.4146 489.816L34.0683 480.61C33.5791 479.958 32.9013 479.633 32.0349 479.633C31.0706 479.633 30.316 480.145 29.771 481.171C29.2259 482.182 28.9534 483.741 28.9534 485.847ZM32.0349 492.061C33.0131 492.061 33.7748 491.555 34.3198 490.543C34.8648 489.518 35.1373 487.953 35.1373 485.847C35.1373 484.059 34.9627 482.674 34.6133 481.69L29.9596 490.98C30.4627 491.7 31.1545 492.061 32.0349 492.061Z" fill="url(#paint10_linear_122_130)" fill-opacity="0.6"/>
<path d="M33.2926 515.645H36.3741V516.747H28.3874V515.645H31.9511V503.966L28.5551 505.982L27.9682 505.046L32.1607 502.469H33.2926V515.645Z" fill="url(#paint11_linear_122_130)" fill-opacity="0.6"/>
<path d="M33.2926 539.396H36.3741V540.498H28.3874V539.396H31.9511V527.717L28.5551 529.733L27.9682 528.798L32.1607 526.221H33.2926V539.396Z" fill="url(#paint12_linear_122_130)" fill-opacity="0.6"/>
<path d="M70.9651 288.502C72.4604 288.502 73.5924 289.133 74.361 290.393C75.1436 291.64 75.5349 293.455 75.5349 295.838C75.5349 298.221 75.1436 300.043 74.361 301.304C73.5924 302.565 72.4604 303.195 70.9651 303.195C69.4838 303.195 68.3518 302.565 67.5692 301.304C66.7866 300.043 66.3953 298.221 66.3953 295.838C66.3953 293.469 66.7866 291.654 67.5692 290.393C68.3518 289.133 69.4838 288.502 70.9651 288.502ZM67.8836 295.838C67.8836 297.529 68.0374 298.852 68.3448 299.808L72.9985 290.601C72.5093 289.95 71.8315 289.624 70.9651 289.624C70.0008 289.624 69.2462 290.137 68.7012 291.162C68.1561 292.174 67.8836 293.732 67.8836 295.838ZM70.9651 302.052C71.9433 302.052 72.705 301.546 73.25 300.535C73.795 299.51 74.0675 297.944 74.0675 295.838C74.0675 294.051 73.8928 292.665 73.5435 291.682L68.8898 300.971C69.3929 301.692 70.0847 302.052 70.9651 302.052Z" fill="url(#paint13_linear_122_130)" fill-opacity="0.6"/>
<path d="M72.2228 325.637H75.3043V326.738H67.3176V325.637H70.8812V313.957L67.4853 315.973L66.8984 315.038L71.0909 312.461H72.2228V325.637Z" fill="url(#paint14_linear_122_130)" fill-opacity="0.6"/>
<path d="M70.9651 336.004C72.4604 336.004 73.5924 336.635 74.361 337.895C75.1436 339.142 75.5349 340.957 75.5349 343.34C75.5349 345.723 75.1436 347.545 74.361 348.806C73.5924 350.067 72.4604 350.697 70.9651 350.697C69.4838 350.697 68.3518 350.067 67.5692 348.806C66.7866 347.545 66.3953 345.723 66.3953 343.34C66.3953 340.971 66.7866 339.156 67.5692 337.895C68.3518 336.635 69.4838 336.004 70.9651 336.004ZM67.8836 343.34C67.8836 345.031 68.0374 346.354 68.3448 347.31L72.9985 338.103C72.5093 337.452 71.8315 337.126 70.9651 337.126C70.0008 337.126 69.2462 337.639 68.7012 338.664C68.1561 339.676 67.8836 341.234 67.8836 343.34ZM70.9651 349.554C71.9433 349.554 72.705 349.049 73.25 348.037C73.795 347.012 74.0675 345.446 74.0675 343.34C74.0675 341.553 73.8928 340.168 73.5435 339.184L68.8898 348.474C69.3929 349.194 70.0847 349.554 70.9651 349.554Z" fill="url(#paint15_linear_122_130)" fill-opacity="0.6"/>
<path d="M70.9651 359.755C72.4604 359.755 73.5924 360.386 74.361 361.646C75.1436 362.893 75.5349 364.708 75.5349 367.091C75.5349 369.474 75.1436 371.296 74.361 372.557C73.5924 373.818 72.4604 374.448 70.9651 374.448C69.4838 374.448 68.3518 373.818 67.5692 372.557C66.7866 371.296 66.3953 369.474 66.3953 367.091C66.3953 364.722 66.7866 362.907 67.5692 361.646C68.3518 360.386 69.4838 359.755 70.9651 359.755ZM67.8836 367.091C67.8836 368.782 68.0374 370.105 68.3448 371.061L72.9985 361.854C72.5093 361.203 71.8315 360.878 70.9651 360.878C70.0008 360.878 69.2462 361.39 68.7012 362.415C68.1561 363.427 67.8836 364.985 67.8836 367.091ZM70.9651 373.305C71.9433 373.305 72.705 372.8 73.25 371.788C73.795 370.763 74.0675 369.197 74.0675 367.091C74.0675 365.304 73.8928 363.919 73.5435 362.935L68.8898 372.225C69.3929 372.945 70.0847 373.305 70.9651 373.305Z" fill="url(#paint16_linear_122_130)" fill-opacity="0.6"/>
<path d="M72.2228 396.89H75.3043V397.992H67.3176V396.89H70.8812V385.21L67.4853 387.226L66.8984 386.291L71.0909 383.714H72.2228V396.89Z" fill="url(#paint17_linear_122_130)" fill-opacity="0.6"/>
<path d="M70.9651 407.257C72.4604 407.257 73.5924 407.888 74.361 409.149C75.1436 410.396 75.5349 412.211 75.5349 414.594C75.5349 416.977 75.1436 418.798 74.361 420.059C73.5924 421.32 72.4604 421.95 70.9651 421.95C69.4838 421.95 68.3518 421.32 67.5692 420.059C66.7866 418.798 66.3953 416.977 66.3953 414.594C66.3953 412.224 66.7866 410.409 67.5692 409.149C68.3518 407.888 69.4838 407.257 70.9651 407.257ZM67.8836 414.594C67.8836 416.284 68.0374 417.607 68.3448 418.563L72.9985 409.356C72.5093 408.705 71.8315 408.38 70.9651 408.38C70.0008 408.38 69.2462 408.892 68.7012 409.918C68.1561 410.929 67.8836 412.488 67.8836 414.594ZM70.9651 420.807C71.9433 420.807 72.705 420.302 73.25 419.29C73.795 418.265 74.0675 416.699 74.0675 414.594C74.0675 412.806 73.8928 411.421 73.5435 410.437L68.8898 419.727C69.3929 420.447 70.0847 420.807 70.9651 420.807Z" fill="url(#paint18_linear_122_130)" fill-opacity="0.6"/>
<path d="M72.2228 444.392H75.3043V445.494H67.3176V444.392H70.8812V432.713L67.4853 434.728L66.8984 433.793L71.0909 431.216H72.2228V444.392Z" fill="url(#paint19_linear_122_130)" fill-opacity="0.6"/>
<path d="M70.9651 454.76C72.4604 454.76 73.5924 455.39 74.361 456.651C75.1436 457.898 75.5349 459.713 75.5349 462.096C75.5349 464.479 75.1436 466.301 74.361 467.561C73.5924 468.822 72.4604 469.453 70.9651 469.453C69.4838 469.453 68.3518 468.822 67.5692 467.561C66.7866 466.301 66.3953 464.479 66.3953 462.096C66.3953 459.726 66.7866 457.911 67.5692 456.651C68.3518 455.39 69.4838 454.76 70.9651 454.76ZM67.8836 462.096C67.8836 463.786 68.0374 465.109 68.3448 466.065L72.9985 456.859C72.5093 456.207 71.8315 455.882 70.9651 455.882C70.0008 455.882 69.2462 456.394 68.7012 457.42C68.1561 458.431 67.8836 459.99 67.8836 462.096ZM70.9651 468.31C71.9433 468.31 72.705 467.804 73.25 466.792C73.795 465.767 74.0675 464.202 74.0675 462.096C74.0675 460.308 73.8928 458.923 73.5435 457.939L68.8898 467.229C69.3929 467.949 70.0847 468.31 70.9651 468.31Z" fill="url(#paint20_linear_122_130)" fill-opacity="0.6"/>
<path d="M70.9651 478.511C72.4604 478.511 73.5924 479.141 74.361 480.402C75.1436 481.649 75.5349 483.464 75.5349 485.847C75.5349 488.23 75.1436 490.052 74.361 491.312C73.5924 492.573 72.4604 493.204 70.9651 493.204C69.4838 493.204 68.3518 492.573 67.5692 491.312C66.7866 490.052 66.3953 488.23 66.3953 485.847C66.3953 483.478 66.7866 481.663 67.5692 480.402C68.3518 479.141 69.4838 478.511 70.9651 478.511ZM67.8836 485.847C67.8836 487.537 68.0374 488.86 68.3448 489.816L72.9985 480.61C72.5093 479.958 71.8315 479.633 70.9651 479.633C70.0008 479.633 69.2462 480.145 68.7012 481.171C68.1561 482.182 67.8836 483.741 67.8836 485.847ZM70.9651 492.061C71.9433 492.061 72.705 491.555 73.25 490.543C73.795 489.518 74.0675 487.953 74.0675 485.847C74.0675 484.059 73.8928 482.674 73.5435 481.69L68.8898 490.98C69.3929 491.7 70.0847 492.061 70.9651 492.061Z" fill="url(#paint21_linear_122_130)" fill-opacity="0.6"/>
<path d="M72.2228 515.645H75.3043V516.747H67.3176V515.645H70.8812V503.966L67.4853 505.982L66.8984 505.046L71.0909 502.469H72.2228V515.645Z" fill="url(#paint22_linear_122_130)" fill-opacity="0.6"/>
<path d="M70.9651 526.013C72.4604 526.013 73.5924 526.643 74.361 527.904C75.1436 529.151 75.5349 530.966 75.5349 533.349C75.5349 535.732 75.1436 537.554 74.361 538.815C73.5924 540.075 72.4604 540.706 70.9651 540.706C69.4838 540.706 68.3518 540.075 67.5692 538.815C66.7866 537.554 66.3953 535.732 66.3953 533.349C66.3953 530.98 66.7866 529.165 67.5692 527.904C68.3518 526.643 69.4838 526.013 70.9651 526.013ZM67.8836 533.349C67.8836 535.039 68.0374 536.362 68.3448 537.318L72.9985 528.112C72.5093 527.461 71.8315 527.135 70.9651 527.135C70.0008 527.135 69.2462 527.648 68.7012 528.673C68.1561 529.684 67.8836 531.243 67.8836 533.349ZM70.9651 539.563C71.9433 539.563 72.705 539.057 73.25 538.046C73.795 537.02 74.0675 535.455 74.0675 533.349C74.0675 531.562 73.8928 530.176 73.5435 529.192L68.8898 538.482C69.3929 539.202 70.0847 539.563 70.9651 539.563Z" fill="url(#paint23_linear_122_130)" fill-opacity="0.6"/>
<path d="M72.2228 563.148H75.3043V564.249H67.3176V563.148H70.8812V551.468L67.4853 553.484L66.8984 552.549L71.0909 549.972H72.2228V563.148Z" fill="url(#paint24_linear_122_130)" fill-opacity="0.6"/>
<path d="M72.2228 586.899H75.3043V588H67.3176V586.899H70.8812V575.219L67.4853 577.235L66.8984 576.3L71.0909 573.723H72.2228V586.899Z" fill="url(#paint25_linear_122_130)" fill-opacity="0.6"/>
<path d="M12.5698 312.253C14.0651 312.253 15.1971 312.884 15.9657 314.144C16.7483 315.391 17.1396 317.206 17.1396 319.589C17.1396 321.972 16.7483 323.794 15.9657 325.055C15.1971 326.316 14.0651 326.946 12.5698 326.946C11.0885 326.946 9.95649 326.316 9.1739 325.055C8.3913 323.794 8 321.972 8 319.589C8 317.22 8.3913 315.405 9.1739 314.144C9.95649 312.884 11.0885 312.253 12.5698 312.253ZM9.48833 319.589C9.48833 321.28 9.64206 322.603 9.9495 323.559L14.6032 314.352C14.114 313.701 13.4363 313.375 12.5698 313.375C11.6055 313.375 10.8509 313.888 10.3059 314.913C9.76084 315.925 9.48833 317.483 9.48833 319.589ZM12.5698 325.803C13.5481 325.803 14.3097 325.297 14.8547 324.286C15.3997 323.261 15.6722 321.695 15.6722 319.589C15.6722 317.802 15.4976 316.417 15.1482 315.433L10.4945 324.722C10.9976 325.443 11.6894 325.803 12.5698 325.803Z" fill="url(#paint26_linear_122_130)" fill-opacity="0.6"/>
<path d="M12.5698 336.004C14.0651 336.004 15.1971 336.635 15.9657 337.895C16.7483 339.142 17.1396 340.957 17.1396 343.34C17.1396 345.723 16.7483 347.545 15.9657 348.806C15.1971 350.067 14.0651 350.697 12.5698 350.697C11.0885 350.697 9.95649 350.067 9.1739 348.806C8.3913 347.545 8 345.723 8 343.34C8 340.971 8.3913 339.156 9.1739 337.895C9.95649 336.635 11.0885 336.004 12.5698 336.004ZM9.48833 343.34C9.48833 345.031 9.64206 346.354 9.9495 347.31L14.6032 338.103C14.114 337.452 13.4363 337.126 12.5698 337.126C11.6055 337.126 10.8509 337.639 10.3059 338.664C9.76084 339.676 9.48833 341.234 9.48833 343.34ZM12.5698 349.554C13.5481 349.554 14.3097 349.049 14.8547 348.037C15.3997 347.012 15.6722 345.446 15.6722 343.34C15.6722 341.553 15.4976 340.168 15.1482 339.184L10.4945 348.474C10.9976 349.194 11.6894 349.554 12.5698 349.554Z" fill="url(#paint27_linear_122_130)" fill-opacity="0.6"/>
<path d="M13.8276 373.139H16.909V374.24H8.92235V373.139H12.486V361.459L9.09005 363.475L8.5031 362.54L12.6956 359.963H13.8276V373.139Z" fill="url(#paint28_linear_122_130)" fill-opacity="0.6"/>
<path d="M12.5698 383.506C14.0651 383.506 15.1971 384.137 15.9657 385.398C16.7483 386.644 17.1396 388.459 17.1396 390.842C17.1396 393.225 16.7483 395.047 15.9657 396.308C15.1971 397.569 14.0651 398.199 12.5698 398.199C11.0885 398.199 9.95649 397.569 9.1739 396.308C8.3913 395.047 8 393.225 8 390.842C8 388.473 8.3913 386.658 9.1739 385.398C9.95649 384.137 11.0885 383.506 12.5698 383.506ZM9.48833 390.842C9.48833 392.533 9.64206 393.856 9.9495 394.812L14.6032 385.605C14.114 384.954 13.4363 384.629 12.5698 384.629C11.6055 384.629 10.8509 385.141 10.3059 386.166C9.76084 387.178 9.48833 388.737 9.48833 390.842ZM12.5698 397.056C13.5481 397.056 14.3097 396.551 14.8547 395.539C15.3997 394.514 15.6722 392.948 15.6722 390.842C15.6722 389.055 15.4976 387.67 15.1482 386.686L10.4945 395.976C10.9976 396.696 11.6894 397.056 12.5698 397.056Z" fill="url(#paint29_linear_122_130)" fill-opacity="0.6"/>
<path d="M13.8276 420.641H16.909V421.743H8.92235V420.641H12.486V408.962L9.09005 410.977L8.5031 410.042L12.6956 407.465H13.8276V420.641Z" fill="url(#paint30_linear_122_130)" fill-opacity="0.6"/>
<path d="M13.8276 444.392H16.909V445.494H8.92235V444.392H12.486V432.713L9.09005 434.728L8.5031 433.793L12.6956 431.216H13.8276V444.392Z" fill="url(#paint31_linear_122_130)" fill-opacity="0.6"/>
<path d="M52.7577 278.135H55.8392V279.236H47.8525V278.135H51.4162V266.455L48.0202 268.471L47.4333 267.536L51.6258 264.959H52.7577V278.135Z" fill="url(#paint32_linear_122_130)" fill-opacity="0.6"/>
<path d="M51.5 288.502C52.9953 288.502 54.1273 289.133 54.8959 290.393C55.6785 291.64 56.0698 293.455 56.0698 295.838C56.0698 298.221 55.6785 300.043 54.8959 301.304C54.1273 302.565 52.9953 303.195 51.5 303.195C50.0187 303.195 48.8867 302.565 48.1041 301.304C47.3215 300.043 46.9302 298.221 46.9302 295.838C46.9302 293.469 47.3215 291.654 48.1041 290.393C48.8867 289.133 50.0187 288.502 51.5 288.502ZM48.4185 295.838C48.4185 297.529 48.5723 298.852 48.8797 299.808L53.5334 290.601C53.0442 289.95 52.3664 289.624 51.5 289.624C50.5357 289.624 49.7811 290.137 49.2361 291.162C48.691 292.174 48.4185 293.732 48.4185 295.838ZM51.5 302.052C52.4782 302.052 53.2399 301.546 53.7849 300.535C54.3299 299.51 54.6024 297.944 54.6024 295.838C54.6024 294.051 54.4277 292.665 54.0784 291.682L49.4247 300.971C49.9278 301.692 50.6196 302.052 51.5 302.052Z" fill="url(#paint33_linear_122_130)" fill-opacity="0.6"/>
<path d="M52.7577 325.637H55.8392V326.738H47.8525V325.637H51.4162V313.957L48.0202 315.973L47.4333 315.038L51.6258 312.461H52.7577V325.637Z" fill="url(#paint34_linear_122_130)" fill-opacity="0.6"/>
<path d="M52.7577 349.388H55.8392V350.489H47.8525V349.388H51.4162V337.708L48.0202 339.724L47.4333 338.789L51.6258 336.212H52.7577V349.388Z" fill="url(#paint35_linear_122_130)" fill-opacity="0.6"/>
<path d="M51.5 359.755C52.9953 359.755 54.1273 360.386 54.8959 361.646C55.6785 362.893 56.0698 364.708 56.0698 367.091C56.0698 369.474 55.6785 371.296 54.8959 372.557C54.1273 373.818 52.9953 374.448 51.5 374.448C50.0187 374.448 48.8867 373.818 48.1041 372.557C47.3215 371.296 46.9302 369.474 46.9302 367.091C46.9302 364.722 47.3215 362.907 48.1041 361.646C48.8867 360.386 50.0187 359.755 51.5 359.755ZM48.4185 367.091C48.4185 368.782 48.5723 370.105 48.8797 371.061L53.5334 361.854C53.0442 361.203 52.3664 360.878 51.5 360.878C50.5357 360.878 49.7811 361.39 49.2361 362.415C48.691 363.427 48.4185 364.985 48.4185 367.091ZM51.5 373.305C52.4782 373.305 53.2399 372.8 53.7849 371.788C54.3299 370.763 54.6024 369.197 54.6024 367.091C54.6024 365.304 54.4277 363.919 54.0784 362.935L49.4247 372.225C49.9278 372.945 50.6196 373.305 51.5 373.305Z" fill="url(#paint36_linear_122_130)" fill-opacity="0.6"/>
<path d="M52.7577 396.89H55.8392V397.992H47.8525V396.89H51.4162V385.21L48.0202 387.226L47.4333 386.291L51.6258 383.714H52.7577V396.89Z" fill="url(#paint37_linear_122_130)" fill-opacity="0.6"/>
<path d="M52.7577 420.641H55.8392V421.743H47.8525V420.641H51.4162V408.962L48.0202 410.977L47.4333 410.042L51.6258 407.465H52.7577V420.641Z" fill="url(#paint38_linear_122_130)" fill-opacity="0.6"/>
<path d="M51.5 431.008C52.9953 431.008 54.1273 431.639 54.8959 432.9C55.6785 434.147 56.0698 435.962 56.0698 438.345C56.0698 440.728 55.6785 442.549 54.8959 443.81C54.1273 445.071 52.9953 445.701 51.5 445.701C50.0187 445.701 48.8867 445.071 48.1041 443.81C47.3215 442.549 46.9302 440.728 46.9302 438.345C46.9302 435.975 47.3215 434.16 48.1041 432.9C48.8867 431.639 50.0187 431.008 51.5 431.008ZM48.4185 438.345C48.4185 440.035 48.5723 441.358 48.8797 442.314L53.5334 433.107C53.0442 432.456 52.3664 432.131 51.5 432.131C50.5357 432.131 49.7811 432.643 49.2361 433.669C48.691 434.68 48.4185 436.239 48.4185 438.345ZM51.5 444.558C52.4782 444.558 53.2399 444.053 53.7849 443.041C54.3299 442.016 54.6024 440.451 54.6024 438.345C54.6024 436.557 54.4277 435.172 54.0784 434.188L49.4247 443.478C49.9278 444.198 50.6196 444.558 51.5 444.558Z" fill="url(#paint39_linear_122_130)" fill-opacity="0.6"/>
<path d="M52.7577 468.143H55.8392V469.245H47.8525V468.143H51.4162V456.464L48.0202 458.48L47.4333 457.544L51.6258 454.967H52.7577V468.143Z" fill="url(#paint40_linear_122_130)" fill-opacity="0.6"/>
<path d="M51.5 478.511C52.9953 478.511 54.1273 479.141 54.8959 480.402C55.6785 481.649 56.0698 483.464 56.0698 485.847C56.0698 488.23 55.6785 490.052 54.8959 491.312C54.1273 492.573 52.9953 493.204 51.5 493.204C50.0187 493.204 48.8867 492.573 48.1041 491.312C47.3215 490.052 46.9302 488.23 46.9302 485.847C46.9302 483.478 47.3215 481.663 48.1041 480.402C48.8867 479.141 50.0187 478.511 51.5 478.511ZM48.4185 485.847C48.4185 487.537 48.5723 488.86 48.8797 489.816L53.5334 480.61C53.0442 479.958 52.3664 479.633 51.5 479.633C50.5357 479.633 49.7811 480.145 49.2361 481.171C48.691 482.182 48.4185 483.741 48.4185 485.847ZM51.5 492.061C52.4782 492.061 53.2399 491.555 53.7849 490.543C54.3299 489.518 54.6024 487.953 54.6024 485.847C54.6024 484.059 54.4277 482.674 54.0784 481.69L49.4247 490.98C49.9278 491.7 50.6196 492.061 51.5 492.061Z" fill="url(#paint41_linear_122_130)" fill-opacity="0.6"/>
<path d="M90.4302 264.751C91.9255 264.751 93.0575 265.381 93.8261 266.642C94.6087 267.889 95 269.704 95 272.087C95 274.47 94.6087 276.292 93.8261 277.553C93.0575 278.814 91.9255 279.444 90.4302 279.444C88.9489 279.444 87.8169 278.814 87.0343 277.553C86.2517 276.292 85.8604 274.47 85.8604 272.087C85.8604 269.718 86.2517 267.903 87.0343 266.642C87.8169 265.381 88.9489 264.751 90.4302 264.751ZM87.3487 272.087C87.3487 273.777 87.5024 275.101 87.8099 276.057L92.4636 266.85C91.9744 266.199 91.2966 265.873 90.4302 265.873C89.4659 265.873 88.7113 266.386 88.1663 267.411C87.6212 268.423 87.3487 269.981 87.3487 272.087ZM90.4302 278.301C91.4084 278.301 92.1701 277.795 92.7151 276.784C93.2601 275.759 93.5326 274.193 93.5326 272.087C93.5326 270.3 93.3579 268.914 93.0086 267.931L88.3549 277.22C88.858 277.941 89.5498 278.301 90.4302 278.301Z" fill="url(#paint42_linear_122_130)" fill-opacity="0.6"/>
<path d="M91.6879 301.886H94.7694V302.987H86.7827V301.886H90.3463V290.206L86.9504 292.222L86.3635 291.287L90.556 288.71H91.6879V301.886Z" fill="url(#paint43_linear_122_130)" fill-opacity="0.6"/>
<path d="M91.6879 325.637H94.7694V326.738H86.7827V325.637H90.3463V313.957L86.9504 315.973L86.3635 315.038L90.556 312.461H91.6879V325.637Z" fill="url(#paint44_linear_122_130)" fill-opacity="0.6"/>
<path d="M90.4302 336.004C91.9255 336.004 93.0575 336.635 93.8261 337.895C94.6087 339.142 95 340.957 95 343.34C95 345.723 94.6087 347.545 93.8261 348.806C93.0575 350.067 91.9255 350.697 90.4302 350.697C88.9489 350.697 87.8169 350.067 87.0343 348.806C86.2517 347.545 85.8604 345.723 85.8604 343.34C85.8604 340.971 86.2517 339.156 87.0343 337.895C87.8169 336.635 88.9489 336.004 90.4302 336.004ZM87.3487 343.34C87.3487 345.031 87.5024 346.354 87.8099 347.31L92.4636 338.103C91.9744 337.452 91.2966 337.126 90.4302 337.126C89.4659 337.126 88.7113 337.639 88.1663 338.664C87.6212 339.676 87.3487 341.234 87.3487 343.34ZM90.4302 349.554C91.4084 349.554 92.1701 349.049 92.7151 348.037C93.2601 347.012 93.5326 345.446 93.5326 343.34C93.5326 341.553 93.3579 340.168 93.0086 339.184L88.3549 348.474C88.858 349.194 89.5498 349.554 90.4302 349.554Z" fill="url(#paint45_linear_122_130)" fill-opacity="0.6"/>
<path d="M90.4302 359.755C91.9255 359.755 93.0575 360.386 93.8261 361.646C94.6087 362.893 95 364.708 95 367.091C95 369.474 94.6087 371.296 93.8261 372.557C93.0575 373.818 91.9255 374.448 90.4302 374.448C88.9489 374.448 87.8169 373.818 87.0343 372.557C86.2517 371.296 85.8604 369.474 85.8604 367.091C85.8604 364.722 86.2517 362.907 87.0343 361.646C87.8169 360.386 88.9489 359.755 90.4302 359.755ZM87.3487 367.091C87.3487 368.782 87.5024 370.105 87.8099 371.061L92.4636 361.854C91.9744 361.203 91.2966 360.878 90.4302 360.878C89.4659 360.878 88.7113 361.39 88.1663 362.415C87.6212 363.427 87.3487 364.985 87.3487 367.091ZM90.4302 373.305C91.4084 373.305 92.1701 372.8 92.7151 371.788C93.2601 370.763 93.5326 369.197 93.5326 367.091C93.5326 365.304 93.3579 363.919 93.0086 362.935L88.3549 372.225C88.858 372.945 89.5498 373.305 90.4302 373.305Z" fill="url(#paint46_linear_122_130)" fill-opacity="0.6"/>
<g opacity="0.6">
<path d="M918.93 -59C920.356 -59 921.436 -58.395 922.17 -57.1851C922.916 -55.9885 923.29 -54.2468 923.29 -51.9599C923.29 -49.673 922.916 -47.9246 922.17 -46.7147C921.436 -45.5048 920.356 -44.8998 918.93 -44.8998C917.517 -44.8998 916.437 -45.5048 915.69 -46.7147C914.943 -47.9246 914.57 -49.673 914.57 -51.9599C914.57 -54.2335 914.943 -55.9752 915.69 -57.1851C916.437 -58.395 917.517 -59 918.93 -59ZM915.99 -51.9599C915.99 -50.3378 916.137 -49.068 916.43 -48.1506L920.87 -56.9857C920.403 -57.6106 919.756 -57.923 918.93 -57.923C918.01 -57.923 917.29 -57.4311 916.77 -56.4472C916.25 -55.4766 915.99 -53.9808 915.99 -51.9599ZM918.93 -45.9967C919.863 -45.9967 920.59 -46.482 921.11 -47.4526C921.63 -48.4365 921.89 -49.9389 921.89 -51.9599C921.89 -53.675 921.723 -55.0046 921.39 -55.9486L916.95 -47.0338C917.43 -46.3424 918.09 -45.9967 918.93 -45.9967Z" fill="url(#paint47_linear_122_130)"/>
<path d="M920.13 -23.3635H923.07V-22.3064H915.45V-23.3635H918.85V-34.5718L915.61 -32.6373L915.05 -33.5347L919.05 -36.0078H920.13V-23.3635Z" fill="url(#paint48_linear_122_130)"/>
<path d="M918.93 -13.4144C920.356 -13.4144 921.436 -12.8094 922.17 -11.5995C922.916 -10.4029 923.29 -8.66114 923.29 -6.37427C923.29 -4.08739 922.916 -2.33899 922.17 -1.12907C921.436 0.0808442 920.356 0.685801 918.93 0.685801C917.517 0.685801 916.437 0.0808442 915.69 -1.12907C914.943 -2.33899 914.57 -4.08739 914.57 -6.37427C914.57 -8.64785 914.943 -10.3896 915.69 -11.5995C916.437 -12.8094 917.517 -13.4144 918.93 -13.4144ZM915.99 -6.37427C915.99 -4.75218 916.137 -3.48243 916.43 -2.56502L920.87 -11.4001C920.403 -12.025 919.756 -12.3374 918.93 -12.3374C918.01 -12.3374 917.29 -11.8455 916.77 -10.8616C916.25 -9.89101 915.99 -8.39523 915.99 -6.37427ZM918.93 -0.411098C919.863 -0.411098 920.59 -0.8964 921.11 -1.86699C921.63 -2.85088 921.89 -4.3533 921.89 -6.37427C921.89 -8.08943 921.723 -9.41901 921.39 -10.363L916.95 -1.44817C917.43 -0.756791 918.09 -0.411098 918.93 -0.411098Z" fill="url(#paint49_linear_122_130)"/>
<path d="M920.13 22.2221H923.07V23.2792H915.45V22.2221H918.85V11.0138L915.61 12.9483L915.05 12.0509L919.05 9.57784H920.13V22.2221Z" fill="url(#paint50_linear_122_130)"/>
<path d="M920.13 45.015H923.07V46.072H915.45V45.015H918.85V33.8066L915.61 35.7411L915.05 34.8437L919.05 32.3706H920.13V45.015Z" fill="url(#paint51_linear_122_130)"/>
<path d="M918.93 54.964C920.356 54.964 921.436 55.569 922.17 56.7789C922.916 57.9755 923.29 59.7173 923.29 62.0041C923.29 64.291 922.916 66.0394 922.17 67.2493C921.436 68.4593 920.356 69.0642 918.93 69.0642C917.517 69.0642 916.437 68.4593 915.69 67.2493C914.943 66.0394 914.57 64.291 914.57 62.0041C914.57 59.7306 914.943 57.9888 915.69 56.7789C916.437 55.569 917.517 54.964 918.93 54.964ZM915.99 62.0041C915.99 63.6262 916.137 64.896 916.43 65.8134L920.87 56.9783C920.403 56.3534 919.756 56.041 918.93 56.041C918.01 56.041 917.29 56.5329 916.77 57.5168C916.25 58.4874 915.99 59.9832 915.99 62.0041ZM918.93 67.9673C919.863 67.9673 920.59 67.482 921.11 66.5114C921.63 65.5275 921.89 64.0251 921.89 62.0041C921.89 60.289 921.723 58.9594 921.39 58.0154L916.95 66.9302C917.43 67.6216 918.09 67.9673 918.93 67.9673Z" fill="url(#paint52_linear_122_130)"/>
<path d="M920.13 90.6006H923.07V91.6576H915.45V90.6006H918.85V79.3922L915.61 81.3267L915.05 80.4293L919.05 77.9562H920.13V90.6006Z" fill="url(#paint53_linear_122_130)"/>
<path d="M918.93 100.55C920.356 100.55 921.436 101.155 922.17 102.365C922.916 103.561 923.29 105.303 923.29 107.59C923.29 109.877 922.916 111.625 922.17 112.835C921.436 114.045 920.356 114.65 918.93 114.65C917.517 114.65 916.437 114.045 915.69 112.835C914.943 111.625 914.57 109.877 914.57 107.59C914.57 105.316 914.943 103.574 915.69 102.365C916.437 101.155 917.517 100.55 918.93 100.55ZM915.99 107.59C915.99 109.212 916.137 110.482 916.43 111.399L920.87 102.564C920.403 101.939 919.756 101.627 918.93 101.627C918.01 101.627 917.29 102.119 916.77 103.102C916.25 104.073 915.99 105.569 915.99 107.59ZM918.93 113.553C919.863 113.553 920.59 113.068 921.11 112.097C921.63 111.113 921.89 109.611 921.89 107.59C921.89 105.875 921.723 104.545 921.39 103.601L916.95 112.516C917.43 113.207 918.09 113.553 918.93 113.553Z" fill="url(#paint54_linear_122_130)"/>
<path d="M918.93 123.342C920.356 123.342 921.436 123.947 922.17 125.157C922.916 126.354 923.29 128.096 923.29 130.383C923.29 132.669 922.916 134.418 922.17 135.628C921.436 136.838 920.356 137.443 918.93 137.443C917.517 137.443 916.437 136.838 915.69 135.628C914.943 134.418 914.57 132.669 914.57 130.383C914.57 128.109 914.943 126.367 915.69 125.157C916.437 123.947 917.517 123.342 918.93 123.342ZM915.99 130.383C915.99 132.005 916.137 133.274 916.43 134.192L920.87 125.357C920.403 124.732 919.756 124.419 918.93 124.419C918.01 124.419 917.29 124.911 916.77 125.895C916.25 126.866 915.99 128.362 915.99 130.383ZM918.93 136.346C919.863 136.346 920.59 135.86 921.11 134.89C921.63 133.906 921.89 132.404 921.89 130.383C921.89 128.667 921.723 127.338 921.39 126.394L916.95 135.309C917.43 136 918.09 136.346 918.93 136.346Z" fill="url(#paint55_linear_122_130)"/>
<path d="M920.13 158.979H923.07V160.036H915.45V158.979H918.85V147.771L915.61 149.705L915.05 148.808L919.05 146.335H920.13V158.979Z" fill="url(#paint56_linear_122_130)"/>
<path d="M918.93 168.928C920.356 168.928 921.436 169.533 922.17 170.743C922.916 171.94 923.29 173.681 923.29 175.968C923.29 178.255 922.916 180.003 922.17 181.213C921.436 182.423 920.356 183.028 918.93 183.028C917.517 183.028 916.437 182.423 915.69 181.213C914.943 180.003 914.57 178.255 914.57 175.968C914.57 173.695 914.943 171.953 915.69 170.743C916.437 169.533 917.517 168.928 918.93 168.928ZM915.99 175.968C915.99 177.59 916.137 178.86 916.43 179.777L920.87 170.942C920.403 170.317 919.756 170.005 918.93 170.005C918.01 170.005 917.29 170.497 916.77 171.481C916.25 172.451 915.99 173.947 915.99 175.968ZM918.93 181.931C919.863 181.931 920.59 181.446 921.11 180.475C921.63 179.492 921.89 177.989 921.89 175.968C921.89 174.253 921.723 172.923 921.39 171.979L916.95 180.894C917.43 181.586 918.09 181.931 918.93 181.931Z" fill="url(#paint57_linear_122_130)"/>
<path d="M920.13 204.565H923.07V205.622H915.45V204.565H918.85V193.356L915.61 195.291L915.05 194.393L919.05 191.92H920.13V204.565Z" fill="url(#paint58_linear_122_130)"/>
<path d="M920.13 227.357H923.07V228.414H915.45V227.357H918.85V216.149L915.61 218.084L915.05 217.186L919.05 214.713H920.13V227.357Z" fill="url(#paint59_linear_122_130)"/>
<path d="M956.07 -13.4144C957.497 -13.4144 958.577 -12.8094 959.31 -11.5995C960.057 -10.4029 960.43 -8.66114 960.43 -6.37427C960.43 -4.08739 960.057 -2.33899 959.31 -1.12907C958.577 0.0808442 957.497 0.685801 956.07 0.685801C954.657 0.685801 953.577 0.0808442 952.83 -1.12907C952.084 -2.33899 951.71 -4.08739 951.71 -6.37427C951.71 -8.64785 952.084 -10.3896 952.83 -11.5995C953.577 -12.8094 954.657 -13.4144 956.07 -13.4144ZM953.13 -6.37427C953.13 -4.75218 953.277 -3.48243 953.57 -2.56502L958.01 -11.4001C957.543 -12.025 956.897 -12.3374 956.07 -12.3374C955.15 -12.3374 954.43 -11.8455 953.91 -10.8616C953.39 -9.89101 953.13 -8.39523 953.13 -6.37427ZM956.07 -0.411098C957.003 -0.411098 957.73 -0.8964 958.25 -1.86699C958.77 -2.85088 959.03 -4.3533 959.03 -6.37427C959.03 -8.08943 958.863 -9.41901 958.53 -10.363L954.09 -1.44817C954.57 -0.756791 955.23 -0.411098 956.07 -0.411098Z" fill="url(#paint60_linear_122_130)"/>
<path d="M957.27 22.2221H960.21V23.2792H952.59V22.2221H955.99V11.0138L952.75 12.9483L952.19 12.0509L956.19 9.57784H957.27V22.2221Z" fill="url(#paint61_linear_122_130)"/>
<path d="M956.07 32.1712C957.497 32.1712 958.577 32.7762 959.31 33.9861C960.057 35.1827 960.43 36.9245 960.43 39.2113C960.43 41.4982 960.057 43.2466 959.31 44.4565C958.577 45.6664 957.497 46.2714 956.07 46.2714C954.657 46.2714 953.577 45.6664 952.83 44.4565C952.084 43.2466 951.71 41.4982 951.71 39.2113C951.71 36.9378 952.084 35.196 952.83 33.9861C953.577 32.7762 954.657 32.1712 956.07 32.1712ZM953.13 39.2113C953.13 40.8334 953.277 42.1032 953.57 43.0206L958.01 34.1855C957.543 33.5606 956.897 33.2482 956.07 33.2482C955.15 33.2482 954.43 33.7401 953.91 34.724C953.39 35.6946 953.13 37.1904 953.13 39.2113ZM956.07 45.1745C957.003 45.1745 957.73 44.6892 958.25 43.7186C958.77 42.7347 959.03 41.2323 959.03 39.2113C959.03 37.4962 958.863 36.1666 958.53 35.2226L954.09 44.1374C954.57 44.8288 955.23 45.1745 956.07 45.1745Z" fill="url(#paint62_linear_122_130)"/>
<path d="M956.07 54.964C957.497 54.964 958.577 55.569 959.31 56.7789C960.057 57.9755 960.43 59.7173 960.43 62.0041C960.43 64.291 960.057 66.0394 959.31 67.2493C958.577 68.4593 957.497 69.0642 956.07 69.0642C954.657 69.0642 953.577 68.4593 952.83 67.2493C952.084 66.0394 951.71 64.291 951.71 62.0041C951.71 59.7306 952.084 57.9888 952.83 56.7789C953.577 55.569 954.657 54.964 956.07 54.964ZM953.13 62.0041C953.13 63.6262 953.277 64.896 953.57 65.8134L958.01 56.9783C957.543 56.3534 956.897 56.041 956.07 56.041C955.15 56.041 954.43 56.5329 953.91 57.5168C953.39 58.4874 953.13 59.9832 953.13 62.0041ZM956.07 67.9673C957.003 67.9673 957.73 67.482 958.25 66.5114C958.77 65.5275 959.03 64.0251 959.03 62.0041C959.03 60.289 958.863 58.9594 958.53 58.0154L954.09 66.9302C954.57 67.6216 955.23 67.9673 956.07 67.9673Z" fill="url(#paint63_linear_122_130)"/>
<path d="M957.27 90.6006H960.21V91.6576H952.59V90.6006H955.99V79.3922L952.75 81.3267L952.19 80.4293L956.19 77.9562H957.27V90.6006Z" fill="url(#paint64_linear_122_130)"/>
<path d="M956.07 100.55C957.497 100.55 958.577 101.155 959.31 102.365C960.057 103.561 960.43 105.303 960.43 107.59C960.43 109.877 960.057 111.625 959.31 112.835C958.577 114.045 957.497 114.65 956.07 114.65C954.657 114.65 953.577 114.045 952.83 112.835C952.084 111.625 951.71 109.877 951.71 107.59C951.71 105.316 952.084 103.574 952.83 102.365C953.577 101.155 954.657 100.55 956.07 100.55ZM953.13 107.59C953.13 109.212 953.277 110.482 953.57 111.399L958.01 102.564C957.543 101.939 956.897 101.627 956.07 101.627C955.15 101.627 954.43 102.119 953.91 103.102C953.39 104.073 953.13 105.569 953.13 107.59ZM956.07 113.553C957.003 113.553 957.73 113.068 958.25 112.097C958.77 111.113 959.03 109.611 959.03 107.59C959.03 105.875 958.863 104.545 958.53 103.601L954.09 112.516C954.57 113.207 955.23 113.553 956.07 113.553Z" fill="url(#paint65_linear_122_130)"/>
<path d="M957.27 136.186H960.21V137.243H952.59V136.186H955.99V124.978L952.75 126.912L952.19 126.015L956.19 123.542H957.27V136.186Z" fill="url(#paint66_linear_122_130)"/>
<path d="M956.07 146.135C957.497 146.135 958.577 146.74 959.31 147.95C960.057 149.147 960.43 150.888 960.43 153.175C960.43 155.462 960.057 157.211 959.31 158.421C958.577 159.63 957.497 160.235 956.07 160.235C954.657 160.235 953.577 159.63 952.83 158.421C952.084 157.211 951.71 155.462 951.71 153.175C951.71 150.902 952.084 149.16 952.83 147.95C953.577 146.74 954.657 146.135 956.07 146.135ZM953.13 153.175C953.13 154.797 953.277 156.067 953.57 156.985L958.01 148.15C957.543 147.525 956.897 147.212 956.07 147.212C955.15 147.212 954.43 147.704 953.91 148.688C953.39 149.659 953.13 151.154 953.13 153.175ZM956.07 159.139C957.003 159.139 957.73 158.653 958.25 157.683C958.77 156.699 959.03 155.196 959.03 153.175C959.03 151.46 958.863 150.131 958.53 149.187L954.09 158.101C954.57 158.793 955.23 159.139 956.07 159.139Z" fill="url(#paint67_linear_122_130)"/>
<path d="M956.07 168.928C957.497 168.928 958.577 169.533 959.31 170.743C960.057 171.94 960.43 173.681 960.43 175.968C960.43 178.255 960.057 180.003 959.31 181.213C958.577 182.423 957.497 183.028 956.07 183.028C954.657 183.028 953.577 182.423 952.83 181.213C952.084 180.003 951.71 178.255 951.71 175.968C951.71 173.695 952.084 171.953 952.83 170.743C953.577 169.533 954.657 168.928 956.07 168.928ZM953.13 175.968C953.13 177.59 953.277 178.86 953.57 179.777L958.01 170.942C957.543 170.317 956.897 170.005 956.07 170.005C955.15 170.005 954.43 170.497 953.91 171.481C953.39 172.451 953.13 173.947 953.13 175.968ZM956.07 181.931C957.003 181.931 957.73 181.446 958.25 180.475C958.77 179.492 959.03 177.989 959.03 175.968C959.03 174.253 958.863 172.923 958.53 171.979L954.09 180.894C954.57 181.586 955.23 181.931 956.07 181.931Z" fill="url(#paint68_linear_122_130)"/>
<path d="M957.27 204.565H960.21V205.622H952.59V204.565H955.99V193.356L952.75 195.291L952.19 194.393L956.19 191.92H957.27V204.565Z" fill="url(#paint69_linear_122_130)"/>
<path d="M956.07 214.514C957.497 214.514 958.577 215.119 959.31 216.329C960.057 217.525 960.43 219.267 960.43 221.554C960.43 223.841 960.057 225.589 959.31 226.799C958.577 228.009 957.497 228.614 956.07 228.614C954.657 228.614 953.577 228.009 952.83 226.799C952.084 225.589 951.71 223.841 951.71 221.554C951.71 219.28 952.084 217.538 952.83 216.329C953.577 215.119 954.657 214.514 956.07 214.514ZM953.13 221.554C953.13 223.176 953.277 224.446 953.57 225.363L958.01 216.528C957.543 215.903 956.897 215.591 956.07 215.591C955.15 215.591 954.43 216.083 953.91 217.066C953.39 218.037 953.13 219.533 953.13 221.554ZM956.07 227.517C957.003 227.517 957.73 227.032 958.25 226.061C958.77 225.077 959.03 223.575 959.03 221.554C959.03 219.839 958.863 218.509 958.53 217.565L954.09 226.48C954.57 227.171 955.23 227.517 956.07 227.517Z" fill="url(#paint70_linear_122_130)"/>
<path d="M957.27 250.15H960.21V251.207H952.59V250.15H955.99V238.942L952.75 240.876L952.19 239.979L956.19 237.506H957.27V250.15Z" fill="url(#paint71_linear_122_130)"/>
<path d="M957.27 272.943H960.21V274H952.59V272.943H955.99V261.735L952.75 263.669L952.19 262.772L956.19 260.299H957.27V272.943Z" fill="url(#paint72_linear_122_130)"/>
<path d="M900.36 9.37841C901.786 9.37841 902.866 9.98337 903.599 11.1933C904.346 12.3899 904.719 14.1317 904.719 16.4185C904.719 18.7054 904.346 20.4538 903.599 21.6637C902.866 22.8736 901.786 23.4786 900.36 23.4786C898.946 23.4786 897.867 22.8736 897.12 21.6637C896.373 20.4538 896 18.7054 896 16.4185C896 14.145 896.373 12.4032 897.12 11.1933C897.867 9.98337 898.946 9.37841 900.36 9.37841ZM897.42 16.4185C897.42 18.0406 897.567 19.3104 897.86 20.2278L902.3 11.3927C901.833 10.7678 901.186 10.4554 900.36 10.4554C899.44 10.4554 898.72 10.9473 898.2 11.9312C897.68 12.9018 897.42 14.3976 897.42 16.4185ZM900.36 22.3817C901.293 22.3817 902.02 21.8964 902.54 20.9258C903.06 19.9419 903.319 18.4395 903.319 16.4185C903.319 14.7034 903.153 13.3738 902.82 12.4298L898.38 21.3446C898.86 22.036 899.52 22.3817 900.36 22.3817Z" fill="url(#paint73_linear_122_130)"/>
<path d="M900.36 32.1712C901.786 32.1712 902.866 32.7762 903.599 33.9861C904.346 35.1827 904.719 36.9245 904.719 39.2113C904.719 41.4982 904.346 43.2466 903.599 44.4565C902.866 45.6664 901.786 46.2714 900.36 46.2714C898.946 46.2714 897.867 45.6664 897.12 44.4565C896.373 43.2466 896 41.4982 896 39.2113C896 36.9378 896.373 35.196 897.12 33.9861C897.867 32.7762 898.946 32.1712 900.36 32.1712ZM897.42 39.2113C897.42 40.8334 897.567 42.1032 897.86 43.0206L902.3 34.1855C901.833 33.5606 901.186 33.2482 900.36 33.2482C899.44 33.2482 898.72 33.7401 898.2 34.724C897.68 35.6946 897.42 37.1904 897.42 39.2113ZM900.36 45.1745C901.293 45.1745 902.02 44.6892 902.54 43.7186C903.06 42.7347 903.319 41.2323 903.319 39.2113C903.319 37.4962 903.153 36.1666 902.82 35.2226L898.38 44.1374C898.86 44.8288 899.52 45.1745 900.36 45.1745Z" fill="url(#paint74_linear_122_130)"/>
<path d="M901.56 67.8078H904.499V68.8648H896.88V67.8078H900.28V56.5994L897.04 58.5339L896.48 57.6365L900.48 55.1635H901.56V67.8078Z" fill="url(#paint75_linear_122_130)"/>
<path d="M900.36 77.7568C901.786 77.7568 902.866 78.3618 903.599 79.5717C904.346 80.7683 904.719 82.5101 904.719 84.7969C904.719 87.0838 904.346 88.8322 903.599 90.0421C902.866 91.2521 901.786 91.857 900.36 91.857C898.946 91.857 897.867 91.2521 897.12 90.0421C896.373 88.8322 896 87.0838 896 84.7969C896 82.5234 896.373 80.7816 897.12 79.5717C897.867 78.3618 898.946 77.7568 900.36 77.7568ZM897.42 84.7969C897.42 86.419 897.567 87.6888 897.86 88.6062L902.3 79.7711C901.833 79.1462 901.186 78.8338 900.36 78.8338C899.44 78.8338 898.72 79.3257 898.2 80.3096C897.68 81.2802 897.42 82.776 897.42 84.7969ZM900.36 90.7601C901.293 90.7601 902.02 90.2748 902.54 89.3042C903.06 88.3203 903.319 86.8179 903.319 84.7969C903.319 83.0818 903.153 81.7522 902.82 80.8082L898.38 89.723C898.86 90.4144 899.52 90.7601 900.36 90.7601Z" fill="url(#paint76_linear_122_130)"/>
<path d="M901.56 113.393H904.499V114.45H896.88V113.393H900.28V102.185L897.04 104.12L896.48 103.222L900.48 100.749H901.56V113.393Z" fill="url(#paint77_linear_122_130)"/>
<path d="M901.56 136.186H904.499V137.243H896.88V136.186H900.28V124.978L897.04 126.912L896.48 126.015L900.48 123.542H901.56V136.186Z" fill="url(#paint78_linear_122_130)"/>
<path d="M938.7 -23.3635H941.64V-22.3064H934.02V-23.3635H937.42V-34.5718L934.18 -32.6373L933.62 -33.5347L937.62 -36.0078H938.7V-23.3635Z" fill="url(#paint79_linear_122_130)"/>
<path d="M937.5 -13.4144C938.927 -13.4144 940.006 -12.8094 940.74 -11.5995C941.486 -10.4029 941.86 -8.66114 941.86 -6.37427C941.86 -4.08739 941.486 -2.33899 940.74 -1.12907C940.006 0.0808442 938.927 0.685801 937.5 0.685801C936.087 0.685801 935.007 0.0808442 934.26 -1.12907C933.514 -2.33899 933.14 -4.08739 933.14 -6.37427C933.14 -8.64785 933.514 -10.3896 934.26 -11.5995C935.007 -12.8094 936.087 -13.4144 937.5 -13.4144ZM934.56 -6.37427C934.56 -4.75218 934.707 -3.48243 935 -2.56502L939.44 -11.4001C938.973 -12.025 938.327 -12.3374 937.5 -12.3374C936.58 -12.3374 935.86 -11.8455 935.34 -10.8616C934.82 -9.89101 934.56 -8.39523 934.56 -6.37427ZM937.5 -0.411098C938.433 -0.411098 939.16 -0.8964 939.68 -1.86699C940.2 -2.85088 940.46 -4.3533 940.46 -6.37427C940.46 -8.08943 940.293 -9.41901 939.96 -10.363L935.52 -1.44817C936 -0.756791 936.66 -0.411098 937.5 -0.411098Z" fill="url(#paint80_linear_122_130)"/>
<path d="M938.7 22.2221H941.64V23.2792H934.02V22.2221H937.42V11.0138L934.18 12.9483L933.62 12.0509L937.62 9.57784H938.7V22.2221Z" fill="url(#paint81_linear_122_130)"/>
<path d="M938.7 45.015H941.64V46.072H934.02V45.015H937.42V33.8066L934.18 35.7411L933.62 34.8437L937.62 32.3706H938.7V45.015Z" fill="url(#paint82_linear_122_130)"/>
<path d="M937.5 54.964C938.927 54.964 940.006 55.569 940.74 56.7789C941.486 57.9755 941.86 59.7173 941.86 62.0041C941.86 64.291 941.486 66.0394 940.74 67.2493C940.006 68.4593 938.927 69.0642 937.5 69.0642C936.087 69.0642 935.007 68.4593 934.26 67.2493C933.514 66.0394 933.14 64.291 933.14 62.0041C933.14 59.7306 933.514 57.9888 934.26 56.7789C935.007 55.569 936.087 54.964 937.5 54.964ZM934.56 62.0041C934.56 63.6262 934.707 64.896 935 65.8134L939.44 56.9783C938.973 56.3534 938.327 56.041 937.5 56.041C936.58 56.041 935.86 56.5329 935.34 57.5168C934.82 58.4874 934.56 59.9832 934.56 62.0041ZM937.5 67.9673C938.433 67.9673 939.16 67.482 939.68 66.5114C940.2 65.5275 940.46 64.0251 940.46 62.0041C940.46 60.289 940.293 58.9594 939.96 58.0154L935.52 66.9302C936 67.6216 936.66 67.9673 937.5 67.9673Z" fill="url(#paint83_linear_122_130)"/>
<path d="M938.7 90.6006H941.64V91.6576H934.02V90.6006H937.42V79.3922L934.18 81.3267L933.62 80.4293L937.62 77.9562H938.7V90.6006Z" fill="url(#paint84_linear_122_130)"/>
<path d="M938.7 113.393H941.64V114.45H934.02V113.393H937.42V102.185L934.18 104.12L933.62 103.222L937.62 100.749H938.7V113.393Z" fill="url(#paint85_linear_122_130)"/>
<path d="M937.5 123.342C938.927 123.342 940.006 123.947 940.74 125.157C941.486 126.354 941.86 128.096 941.86 130.383C941.86 132.669 941.486 134.418 940.74 135.628C940.006 136.838 938.927 137.443 937.5 137.443C936.087 137.443 935.007 136.838 934.26 135.628C933.514 134.418 933.14 132.669 933.14 130.383C933.14 128.109 933.514 126.367 934.26 125.157C935.007 123.947 936.087 123.342 937.5 123.342ZM934.56 130.383C934.56 132.005 934.707 133.274 935 134.192L939.44 125.357C938.973 124.732 938.327 124.419 937.5 124.419C936.58 124.419 935.86 124.911 935.34 125.895C934.82 126.866 934.56 128.362 934.56 130.383ZM937.5 136.346C938.433 136.346 939.16 135.86 939.68 134.89C940.2 133.906 940.46 132.404 940.46 130.383C940.46 128.667 940.293 127.338 939.96 126.394L935.52 135.309C936 136 936.66 136.346 937.5 136.346Z" fill="url(#paint86_linear_122_130)"/>
<path d="M938.7 158.979H941.64V160.036H934.02V158.979H937.42V147.771L934.18 149.705L933.62 148.808L937.62 146.335H938.7V158.979Z" fill="url(#paint87_linear_122_130)"/>
<path d="M937.5 168.928C938.927 168.928 940.006 169.533 940.74 170.743C941.486 171.94 941.86 173.681 941.86 175.968C941.86 178.255 941.486 180.003 940.74 181.213C940.006 182.423 938.927 183.028 937.5 183.028C936.087 183.028 935.007 182.423 934.26 181.213C933.514 180.003 933.14 178.255 933.14 175.968C933.14 173.695 933.514 171.953 934.26 170.743C935.007 169.533 936.087 168.928 937.5 168.928ZM934.56 175.968C934.56 177.59 934.707 178.86 935 179.777L939.44 170.942C938.973 170.317 938.327 170.005 937.5 170.005C936.58 170.005 935.86 170.497 935.34 171.481C934.82 172.451 934.56 173.947 934.56 175.968ZM937.5 181.931C938.433 181.931 939.16 181.446 939.68 180.475C940.2 179.492 940.46 177.989 940.46 175.968C940.46 174.253 940.293 172.923 939.96 171.979L935.52 180.894C936 181.586 936.66 181.931 937.5 181.931Z" fill="url(#paint88_linear_122_130)"/>
<path d="M974.64 -36.2072C976.067 -36.2072 977.147 -35.6022 977.88 -34.3923C978.627 -33.1957 979 -31.4539 979 -29.1671C979 -26.8802 978.627 -25.1318 977.88 -23.9219C977.147 -22.712 976.067 -22.107 974.64 -22.107C973.227 -22.107 972.147 -22.712 971.401 -23.9219C970.654 -25.1318 970.281 -26.8802 970.281 -29.1671C970.281 -31.4407 970.654 -33.1824 971.401 -34.3923C972.147 -35.6022 973.227 -36.2072 974.64 -36.2072ZM971.7 -29.1671C971.7 -27.545 971.847 -26.2752 972.14 -25.3578L976.58 -34.1929C976.114 -34.8178 975.467 -35.1302 974.64 -35.1302C973.72 -35.1302 973 -34.6383 972.48 -33.6544C971.96 -32.6838 971.7 -31.188 971.7 -29.1671ZM974.64 -23.2039C975.574 -23.2039 976.3 -23.6892 976.82 -24.6598C977.34 -25.6437 977.6 -27.1461 977.6 -29.1671C977.6 -30.8822 977.433 -32.2118 977.1 -33.1558L972.66 -24.241C973.14 -23.5496 973.8 -23.2039 974.64 -23.2039Z" fill="url(#paint89_linear_122_130)"/>
<path d="M975.84 -0.570654H978.78V0.486365H971.161V-0.570654H974.56V-11.779L971.321 -9.84447L970.761 -10.7419L974.76 -13.215H975.84V-0.570654Z" fill="url(#paint90_linear_122_130)"/>
<path d="M975.84 22.2221H978.78V23.2792H971.161V22.2221H974.56V11.0138L971.321 12.9483L970.761 12.0509L974.76 9.57784H975.84V22.2221Z" fill="url(#paint91_linear_122_130)"/>
<path d="M974.64 32.1712C976.067 32.1712 977.147 32.7762 977.88 33.9861C978.627 35.1827 979 36.9245 979 39.2113C979 41.4982 978.627 43.2466 977.88 44.4565C977.147 45.6664 976.067 46.2714 974.64 46.2714C973.227 46.2714 972.147 45.6664 971.401 44.4565C970.654 43.2466 970.281 41.4982 970.281 39.2113C970.281 36.9378 970.654 35.196 971.401 33.9861C972.147 32.7762 973.227 32.1712 974.64 32.1712ZM971.7 39.2113C971.7 40.8334 971.847 42.1032 972.14 43.0206L976.58 34.1855C976.114 33.5606 975.467 33.2482 974.64 33.2482C973.72 33.2482 973 33.7401 972.48 34.724C971.96 35.6946 971.7 37.1904 971.7 39.2113ZM974.64 45.1745C975.574 45.1745 976.3 44.6892 976.82 43.7186C977.34 42.7347 977.6 41.2323 977.6 39.2113C977.6 37.4962 977.433 36.1666 977.1 35.2226L972.66 44.1374C973.14 44.8288 973.8 45.1745 974.64 45.1745Z" fill="url(#paint92_linear_122_130)"/>
<path d="M974.64 54.964C976.067 54.964 977.147 55.569 977.88 56.7789C978.627 57.9755 979 59.7173 979 62.0041C979 64.291 978.627 66.0394 977.88 67.2493C977.147 68.4593 976.067 69.0642 974.64 69.0642C973.227 69.0642 972.147 68.4593 971.401 67.2493C970.654 66.0394 970.281 64.291 970.281 62.0041C970.281 59.7306 970.654 57.9888 971.401 56.7789C972.147 55.569 973.227 54.964 974.64 54.964ZM971.7 62.0041C971.7 63.6262 971.847 64.896 972.14 65.8134L976.58 56.9783C976.114 56.3534 975.467 56.041 974.64 56.041C973.72 56.041 973 56.5329 972.48 57.5168C971.96 58.4874 971.7 59.9832 971.7 62.0041ZM974.64 67.9673C975.574 67.9673 976.3 67.482 976.82 66.5114C977.34 65.5275 977.6 64.0251 977.6 62.0041C977.6 60.289 977.433 58.9594 977.1 58.0154L972.66 66.9302C973.14 67.6216 973.8 67.9673 974.64 67.9673Z" fill="url(#paint93_linear_122_130)"/>
</g>
</g>
<defs>
<filter id="filter0_f_122_130" x="-559.19" y="-745.19" width="2141.38" height="1500.38" filterUnits="userSpaceOnUse" color-interpolation-filters="sRGB">
<feFlood flood-opacity="0" result="BackgroundImageFix"/>
<feBlend mode="normal" in="SourceGraphic" in2="BackgroundImageFix" result="shape"/>
<feGaussianBlur stdDeviation="200.095" result="effect1_foregroundBlur_122_130"/>
</filter>
<linearGradient id="paint0_linear_122_130" x1="51.5" y1="241" x2="51.5" y2="552.381" gradientUnits="userSpaceOnUse">
<stop stop-color="#F7DD43"/>
<stop offset="1" stop-color="#F7DD43" stop-opacity="0"/>
</linearGradient>
<linearGradient id="paint1_linear_122_130" x1="51.5" y1="241" x2="51.5" y2="552.381" gradientUnits="userSpaceOnUse">
<stop stop-color="#F7DD43"/>
<stop offset="1" stop-color="#F7DD43" stop-opacity="0"/>
</linearGradient>
<linearGradient id="paint2_linear_122_130" x1="51.5" y1="241" x2="51.5" y2="552.381" gradientUnits="userSpaceOnUse">
<stop stop-color="#F7DD43"/>
<stop offset="1" stop-color="#F7DD43" stop-opacity="0"/>
</linearGradient>
<linearGradient id="paint3_linear_122_130" x1="51.5" y1="241" x2="51.5" y2="552.381" gradientUnits="userSpaceOnUse">
<stop stop-color="#F7DD43"/>
<stop offset="1" stop-color="#F7DD43" stop-opacity="0"/>
</linearGradient>
<linearGradient id="paint4_linear_122_130" x1="51.5" y1="241" x2="51.5" y2="552.381" gradientUnits="userSpaceOnUse">
<stop stop-color="#F7DD43"/>
<stop offset="1" stop-color="#F7DD43" stop-opacity="0"/>
</linearGradient>
<linearGradient id="paint5_linear_122_130" x1="51.5" y1="241" x2="51.5" y2="552.381" gradientUnits="userSpaceOnUse">
<stop stop-color="#F7DD43"/>
<stop offset="1" stop-color="#F7DD43" stop-opacity="0"/>
</linearGradient>
<linearGradient id="paint6_linear_122_130" x1="51.5" y1="241" x2="51.5" y2="552.381" gradientUnits="userSpaceOnUse">
<stop stop-color="#F7DD43"/>
<stop offset="1" stop-color="#F7DD43" stop-opacity="0"/>
</linearGradient>
<linearGradient id="paint7_linear_122_130" x1="51.5" y1="241" x2="51.5" y2="552.381" gradientUnits="userSpaceOnUse">
<stop stop-color="#F7DD43"/>
<stop offset="1" stop-color="#F7DD43" stop-opacity="0"/>
</linearGradient>
<linearGradient id="paint8_linear_122_130" x1="51.5" y1="241" x2="51.5" y2="552.381" gradientUnits="userSpaceOnUse">
<stop stop-color="#F7DD43"/>
<stop offset="1" stop-color="#F7DD43" stop-opacity="0"/>
</linearGradient>
<linearGradient id="paint9_linear_122_130" x1="51.5" y1="241" x2="51.5" y2="552.381" gradientUnits="userSpaceOnUse">
<stop stop-color="#F7DD43"/>
<stop offset="1" stop-color="#F7DD43" stop-opacity="0"/>
</linearGradient>
<linearGradient id="paint10_linear_122_130" x1="51.5" y1="241" x2="51.5" y2="552.381" gradientUnits="userSpaceOnUse">
<stop stop-color="#F7DD43"/>
<stop offset="1" stop-color="#F7DD43" stop-opacity="0"/>
</linearGradient>
<linearGradient id="paint11_linear_122_130" x1="51.5" y1="241" x2="51.5" y2="552.381" gradientUnits="userSpaceOnUse">
<stop stop-color="#F7DD43"/>
<stop offset="1" stop-color="#F7DD43" stop-opacity="0"/>
</linearGradient>
<linearGradient id="paint12_linear_122_130" x1="51.5" y1="241" x2="51.5" y2="552.381" gradientUnits="userSpaceOnUse">
<stop stop-color="#F7DD43"/>
<stop offset="1" stop-color="#F7DD43" stop-opacity="0"/>
</linearGradient>
<linearGradient id="paint13_linear_122_130" x1="51.5" y1="241" x2="51.5" y2="552.381" gradientUnits="userSpaceOnUse">
<stop stop-color="#F7DD43"/>
<stop offset="1" stop-color="#F7DD43" stop-opacity="0"/>
</linearGradient>
<linearGradient id="paint14_linear_122_130" x1="51.5" y1="241" x2="51.5" y2="552.381" gradientUnits="userSpaceOnUse">
<stop stop-color="#F7DD43"/>
<stop offset="1" stop-color="#F7DD43" stop-opacity="0"/>
</linearGradient>
<linearGradient id="paint15_linear_122_130" x1="51.5" y1="241" x2="51.5" y2="552.381" gradientUnits="userSpaceOnUse">
<stop stop-color="#F7DD43"/>
<stop offset="1" stop-color="#F7DD43" stop-opacity="0"/>
</linearGradient>
<linearGradient id="paint16_linear_122_130" x1="51.5" y1="241" x2="51.5" y2="552.381" gradientUnits="userSpaceOnUse">
<stop stop-color="#F7DD43"/>
<stop offset="1" stop-color="#F7DD43" stop-opacity="0"/>
</linearGradient>
<linearGradient id="paint17_linear_122_130" x1="51.5" y1="241" x2="51.5" y2="552.381" gradientUnits="userSpaceOnUse">
<stop stop-color="#F7DD43"/>
<stop offset="1" stop-color="#F7DD43" stop-opacity="0"/>
</linearGradient>
<linearGradient id="paint18_linear_122_130" x1="51.5" y1="241" x2="51.5" y2="552.381" gradientUnits="userSpaceOnUse">
<stop stop-color="#F7DD43"/>
<stop offset="1" stop-color="#F7DD43" stop-opacity="0"/>
</linearGradient>
<linearGradient id="paint19_linear_122_130" x1="51.5" y1="241" x2="51.5" y2="552.381" gradientUnits="userSpaceOnUse">
<stop stop-color="#F7DD43"/>
<stop offset="1" stop-color="#F7DD43" stop-opacity="0"/>
</linearGradient>
<linearGradient id="paint20_linear_122_130" x1="51.5" y1="241" x2="51.5" y2="552.381" gradientUnits="userSpaceOnUse">
<stop stop-color="#F7DD43"/>
<stop offset="1" stop-color="#F7DD43" stop-opacity="0"/>
</linearGradient>
<linearGradient id="paint21_linear_122_130" x1="51.5" y1="241" x2="51.5" y2="552.381" gradientUnits="userSpaceOnUse">
<stop stop-color="#F7DD43"/>
<stop offset="1" stop-color="#F7DD43" stop-opacity="0"/>
</linearGradient>
<linearGradient id="paint22_linear_122_130" x1="51.5" y1="241" x2="51.5" y2="552.381" gradientUnits="userSpaceOnUse">
<stop stop-color="#F7DD43"/>
<stop offset="1" stop-color="#F7DD43" stop-opacity="0"/>
</linearGradient>
<linearGradient id="paint23_linear_122_130" x1="51.5" y1="241" x2="51.5" y2="552.381" gradientUnits="userSpaceOnUse">
<stop stop-color="#F7DD43"/>
<stop offset="1" stop-color="#F7DD43" stop-opacity="0"/>
</linearGradient>
<linearGradient id="paint24_linear_122_130" x1="51.5" y1="241" x2="51.5" y2="552.381" gradientUnits="userSpaceOnUse">
<stop stop-color="#F7DD43"/>
<stop offset="1" stop-color="#F7DD43" stop-opacity="0"/>
</linearGradient>
<linearGradient id="paint25_linear_122_130" x1="51.5" y1="241" x2="51.5" y2="552.381" gradientUnits="userSpaceOnUse">
<stop stop-color="#F7DD43"/>
<stop offset="1" stop-color="#F7DD43" stop-opacity="0"/>
</linearGradient>
<linearGradient id="paint26_linear_122_130" x1="51.5" y1="241" x2="51.5" y2="552.381" gradientUnits="userSpaceOnUse">
<stop stop-color="#F7DD43"/>
<stop offset="1" stop-color="#F7DD43" stop-opacity="0"/>
</linearGradient>
<linearGradient id="paint27_linear_122_130" x1="51.5" y1="241" x2="51.5" y2="552.381" gradientUnits="userSpaceOnUse">
<stop stop-color="#F7DD43"/>
<stop offset="1" stop-color="#F7DD43" stop-opacity="0"/>
</linearGradient>
<linearGradient id="paint28_linear_122_130" x1="51.5" y1="241" x2="51.5" y2="552.381" gradientUnits="userSpaceOnUse">
<stop stop-color="#F7DD43"/>
<stop offset="1" stop-color="#F7DD43" stop-opacity="0"/>
</linearGradient>
<linearGradient id="paint29_linear_122_130" x1="51.5" y1="241" x2="51.5" y2="552.381" gradientUnits="userSpaceOnUse">
<stop stop-color="#F7DD43"/>
<stop offset="1" stop-color="#F7DD43" stop-opacity="0"/>
</linearGradient>
<linearGradient id="paint30_linear_122_130" x1="51.5" y1="241" x2="51.5" y2="552.381" gradientUnits="userSpaceOnUse">
<stop stop-color="#F7DD43"/>
<stop offset="1" stop-color="#F7DD43" stop-opacity="0"/>
</linearGradient>
<linearGradient id="paint31_linear_122_130" x1="51.5" y1="241" x2="51.5" y2="552.381" gradientUnits="userSpaceOnUse">
<stop stop-color="#F7DD43"/>
<stop offset="1" stop-color="#F7DD43" stop-opacity="0"/>
</linearGradient>
<linearGradient id="paint32_linear_122_130" x1="51.5" y1="241" x2="51.5" y2="552.381" gradientUnits="userSpaceOnUse">
<stop stop-color="#F7DD43"/>
<stop offset="1" stop-color="#F7DD43" stop-opacity="0"/>
</linearGradient>
<linearGradient id="paint33_linear_122_130" x1="51.5" y1="241" x2="51.5" y2="552.381" gradientUnits="userSpaceOnUse">
<stop stop-color="#F7DD43"/>
<stop offset="1" stop-color="#F7DD43" stop-opacity="0"/>
</linearGradient>
<linearGradient id="paint34_linear_122_130" x1="51.5" y1="241" x2="51.5" y2="552.381" gradientUnits="userSpaceOnUse">
<stop stop-color="#F7DD43"/>
<stop offset="1" stop-color="#F7DD43" stop-opacity="0"/>
</linearGradient>
<linearGradient id="paint35_linear_122_130" x1="51.5" y1="241" x2="51.5" y2="552.381" gradientUnits="userSpaceOnUse">
<stop stop-color="#F7DD43"/>
<stop offset="1" stop-color="#F7DD43" stop-opacity="0"/>
</linearGradient>
<linearGradient id="paint36_linear_122_130" x1="51.5" y1="241" x2="51.5" y2="552.381" gradientUnits="userSpaceOnUse">
<stop stop-color="#F7DD43"/>
<stop offset="1" stop-color="#F7DD43" stop-opacity="0"/>
</linearGradient>
<linearGradient id="paint37_linear_122_130" x1="51.5" y1="241" x2="51.5" y2="552.381" gradientUnits="userSpaceOnUse">
<stop stop-color="#F7DD43"/>
<stop offset="1" stop-color="#F7DD43" stop-opacity="0"/>
</linearGradient>
<linearGradient id="paint38_linear_122_130" x1="51.5" y1="241" x2="51.5" y2="552.381" gradientUnits="userSpaceOnUse">
<stop stop-color="#F7DD43"/>
<stop offset="1" stop-color="#F7DD43" stop-opacity="0"/>
</linearGradient>
<linearGradient id="paint39_linear_122_130" x1="51.5" y1="241" x2="51.5" y2="552.381" gradientUnits="userSpaceOnUse">
<stop stop-color="#F7DD43"/>
<stop offset="1" stop-color="#F7DD43" stop-opacity="0"/>
</linearGradient>
<linearGradient id="paint40_linear_122_130" x1="51.5" y1="241" x2="51.5" y2="552.381" gradientUnits="userSpaceOnUse">
<stop stop-color="#F7DD43"/>
<stop offset="1" stop-color="#F7DD43" stop-opacity="0"/>
</linearGradient>
<linearGradient id="paint41_linear_122_130" x1="51.5" y1="241" x2="51.5" y2="552.381" gradientUnits="userSpaceOnUse">
<stop stop-color="#F7DD43"/>
<stop offset="1" stop-color="#F7DD43" stop-opacity="0"/>
</linearGradient>
<linearGradient id="paint42_linear_122_130" x1="51.5" y1="241" x2="51.5" y2="552.381" gradientUnits="userSpaceOnUse">
<stop stop-color="#F7DD43"/>
<stop offset="1" stop-color="#F7DD43" stop-opacity="0"/>
</linearGradient>
<linearGradient id="paint43_linear_122_130" x1="51.5" y1="241" x2="51.5" y2="552.381" gradientUnits="userSpaceOnUse">
<stop stop-color="#F7DD43"/>
<stop offset="1" stop-color="#F7DD43" stop-opacity="0"/>
</linearGradient>
<linearGradient id="paint44_linear_122_130" x1="51.5" y1="241" x2="51.5" y2="552.381" gradientUnits="userSpaceOnUse">
<stop stop-color="#F7DD43"/>
<stop offset="1" stop-color="#F7DD43" stop-opacity="0"/>
</linearGradient>
<linearGradient id="paint45_linear_122_130" x1="51.5" y1="241" x2="51.5" y2="552.381" gradientUnits="userSpaceOnUse">
<stop stop-color="#F7DD43"/>
<stop offset="1" stop-color="#F7DD43" stop-opacity="0"/>
</linearGradient>
<linearGradient id="paint46_linear_122_130" x1="51.5" y1="241" x2="51.5" y2="552.381" gradientUnits="userSpaceOnUse">
<stop stop-color="#F7DD43"/>
<stop offset="1" stop-color="#F7DD43" stop-opacity="0"/>
</linearGradient>
<linearGradient id="paint47_linear_122_130" x1="937.5" y1="-59" x2="937.5" y2="239.818" gradientUnits="userSpaceOnUse">
<stop stop-color="#F7DD43"/>
<stop offset="1" stop-color="#F7DD43" stop-opacity="0"/>
</linearGradient>
<linearGradient id="paint48_linear_122_130" x1="937.5" y1="-59" x2="937.5" y2="239.818" gradientUnits="userSpaceOnUse">
<stop stop-color="#F7DD43"/>
<stop offset="1" stop-color="#F7DD43" stop-opacity="0"/>
</linearGradient>
<linearGradient id="paint49_linear_122_130" x1="937.5" y1="-59" x2="937.5" y2="239.818" gradientUnits="userSpaceOnUse">
<stop stop-color="#F7DD43"/>
<stop offset="1" stop-color="#F7DD43" stop-opacity="0"/>
</linearGradient>
<linearGradient id="paint50_linear_122_130" x1="937.5" y1="-59" x2="937.5" y2="239.818" gradientUnits="userSpaceOnUse">
<stop stop-color="#F7DD43"/>
<stop offset="1" stop-color="#F7DD43" stop-opacity="0"/>
</linearGradient>
<linearGradient id="paint51_linear_122_130" x1="937.5" y1="-59" x2="937.5" y2="239.818" gradientUnits="userSpaceOnUse">
<stop stop-color="#F7DD43"/>
<stop offset="1" stop-color="#F7DD43" stop-opacity="0"/>
</linearGradient>
<linearGradient id="paint52_linear_122_130" x1="937.5" y1="-59" x2="937.5" y2="239.818" gradientUnits="userSpaceOnUse">
<stop stop-color="#F7DD43"/>
<stop offset="1" stop-color="#F7DD43" stop-opacity="0"/>
</linearGradient>
<linearGradient id="paint53_linear_122_130" x1="937.5" y1="-59" x2="937.5" y2="239.818" gradientUnits="userSpaceOnUse">
<stop stop-color="#F7DD43"/>
<stop offset="1" stop-color="#F7DD43" stop-opacity="0"/>
</linearGradient>
<linearGradient id="paint54_linear_122_130" x1="937.5" y1="-59" x2="937.5" y2="239.818" gradientUnits="userSpaceOnUse">
<stop stop-color="#F7DD43"/>
<stop offset="1" stop-color="#F7DD43" stop-opacity="0"/>
</linearGradient>
<linearGradient id="paint55_linear_122_130" x1="937.5" y1="-59" x2="937.5" y2="239.818" gradientUnits="userSpaceOnUse">
<stop stop-color="#F7DD43"/>
<stop offset="1" stop-color="#F7DD43" stop-opacity="0"/>
</linearGradient>
<linearGradient id="paint56_linear_122_130" x1="937.5" y1="-59" x2="937.5" y2="239.818" gradientUnits="userSpaceOnUse">
<stop stop-color="#F7DD43"/>
<stop offset="1" stop-color="#F7DD43" stop-opacity="0"/>
</linearGradient>
<linearGradient id="paint57_linear_122_130" x1="937.5" y1="-59" x2="937.5" y2="239.818" gradientUnits="userSpaceOnUse">
<stop stop-color="#F7DD43"/>
<stop offset="1" stop-color="#F7DD43" stop-opacity="0"/>
</linearGradient>
<linearGradient id="paint58_linear_122_130" x1="937.5" y1="-59" x2="937.5" y2="239.818" gradientUnits="userSpaceOnUse">
<stop stop-color="#F7DD43"/>
<stop offset="1" stop-color="#F7DD43" stop-opacity="0"/>
</linearGradient>
<linearGradient id="paint59_linear_122_130" x1="937.5" y1="-59" x2="937.5" y2="239.818" gradientUnits="userSpaceOnUse">
<stop stop-color="#F7DD43"/>
<stop offset="1" stop-color="#F7DD43" stop-opacity="0"/>
</linearGradient>
<linearGradient id="paint60_linear_122_130" x1="937.5" y1="-59" x2="937.5" y2="239.818" gradientUnits="userSpaceOnUse">
<stop stop-color="#F7DD43"/>
<stop offset="1" stop-color="#F7DD43" stop-opacity="0"/>
</linearGradient>
<linearGradient id="paint61_linear_122_130" x1="937.5" y1="-59" x2="937.5" y2="239.818" gradientUnits="userSpaceOnUse">
<stop stop-color="#F7DD43"/>
<stop offset="1" stop-color="#F7DD43" stop-opacity="0"/>
</linearGradient>
<linearGradient id="paint62_linear_122_130" x1="937.5" y1="-59" x2="937.5" y2="239.818" gradientUnits="userSpaceOnUse">
<stop stop-color="#F7DD43"/>
<stop offset="1" stop-color="#F7DD43" stop-opacity="0"/>
</linearGradient>
<linearGradient id="paint63_linear_122_130" x1="937.5" y1="-59" x2="937.5" y2="239.818" gradientUnits="userSpaceOnUse">
<stop stop-color="#F7DD43"/>
<stop offset="1" stop-color="#F7DD43" stop-opacity="0"/>
</linearGradient>
<linearGradient id="paint64_linear_122_130" x1="937.5" y1="-59" x2="937.5" y2="239.818" gradientUnits="userSpaceOnUse">
<stop stop-color="#F7DD43"/>
<stop offset="1" stop-color="#F7DD43" stop-opacity="0"/>
</linearGradient>
<linearGradient id="paint65_linear_122_130" x1="937.5" y1="-59" x2="937.5" y2="239.818" gradientUnits="userSpaceOnUse">
<stop stop-color="#F7DD43"/>
<stop offset="1" stop-color="#F7DD43" stop-opacity="0"/>
</linearGradient>
<linearGradient id="paint66_linear_122_130" x1="937.5" y1="-59" x2="937.5" y2="239.818" gradientUnits="userSpaceOnUse">
<stop stop-color="#F7DD43"/>
<stop offset="1" stop-color="#F7DD43" stop-opacity="0"/>
</linearGradient>
<linearGradient id="paint67_linear_122_130" x1="937.5" y1="-59" x2="937.5" y2="239.818" gradientUnits="userSpaceOnUse">
<stop stop-color="#F7DD43"/>
<stop offset="1" stop-color="#F7DD43" stop-opacity="0"/>
</linearGradient>
<linearGradient id="paint68_linear_122_130" x1="937.5" y1="-59" x2="937.5" y2="239.818" gradientUnits="userSpaceOnUse">
<stop stop-color="#F7DD43"/>
<stop offset="1" stop-color="#F7DD43" stop-opacity="0"/>
</linearGradient>
<linearGradient id="paint69_linear_122_130" x1="937.5" y1="-59" x2="937.5" y2="239.818" gradientUnits="userSpaceOnUse">
<stop stop-color="#F7DD43"/>
<stop offset="1" stop-color="#F7DD43" stop-opacity="0"/>
</linearGradient>
<linearGradient id="paint70_linear_122_130" x1="937.5" y1="-59" x2="937.5" y2="239.818" gradientUnits="userSpaceOnUse">
<stop stop-color="#F7DD43"/>
<stop offset="1" stop-color="#F7DD43" stop-opacity="0"/>
</linearGradient>
<linearGradient id="paint71_linear_122_130" x1="937.5" y1="-59" x2="937.5" y2="239.818" gradientUnits="userSpaceOnUse">
<stop stop-color="#F7DD43"/>
<stop offset="1" stop-color="#F7DD43" stop-opacity="0"/>
</linearGradient>
<linearGradient id="paint72_linear_122_130" x1="937.5" y1="-59" x2="937.5" y2="239.818" gradientUnits="userSpaceOnUse">
<stop stop-color="#F7DD43"/>
<stop offset="1" stop-color="#F7DD43" stop-opacity="0"/>
</linearGradient>
<linearGradient id="paint73_linear_122_130" x1="937.5" y1="-59" x2="937.5" y2="239.818" gradientUnits="userSpaceOnUse">
<stop stop-color="#F7DD43"/>
<stop offset="1" stop-color="#F7DD43" stop-opacity="0"/>
</linearGradient>
<linearGradient id="paint74_linear_122_130" x1="937.5" y1="-59" x2="937.5" y2="239.818" gradientUnits="userSpaceOnUse">
<stop stop-color="#F7DD43"/>
<stop offset="1" stop-color="#F7DD43" stop-opacity="0"/>
</linearGradient>
<linearGradient id="paint75_linear_122_130" x1="937.5" y1="-59" x2="937.5" y2="239.818" gradientUnits="userSpaceOnUse">
<stop stop-color="#F7DD43"/>
<stop offset="1" stop-color="#F7DD43" stop-opacity="0"/>
</linearGradient>
<linearGradient id="paint76_linear_122_130" x1="937.5" y1="-59" x2="937.5" y2="239.818" gradientUnits="userSpaceOnUse">
<stop stop-color="#F7DD43"/>
<stop offset="1" stop-color="#F7DD43" stop-opacity="0"/>
</linearGradient>
<linearGradient id="paint77_linear_122_130" x1="937.5" y1="-59" x2="937.5" y2="239.818" gradientUnits="userSpaceOnUse">
<stop stop-color="#F7DD43"/>
<stop offset="1" stop-color="#F7DD43" stop-opacity="0"/>
</linearGradient>
<linearGradient id="paint78_linear_122_130" x1="937.5" y1="-59" x2="937.5" y2="239.818" gradientUnits="userSpaceOnUse">
<stop stop-color="#F7DD43"/>
<stop offset="1" stop-color="#F7DD43" stop-opacity="0"/>
</linearGradient>
<linearGradient id="paint79_linear_122_130" x1="937.5" y1="-59" x2="937.5" y2="239.818" gradientUnits="userSpaceOnUse">
<stop stop-color="#F7DD43"/>
<stop offset="1" stop-color="#F7DD43" stop-opacity="0"/>
</linearGradient>
<linearGradient id="paint80_linear_122_130" x1="937.5" y1="-59" x2="937.5" y2="239.818" gradientUnits="userSpaceOnUse">
<stop stop-color="#F7DD43"/>
<stop offset="1" stop-color="#F7DD43" stop-opacity="0"/>
</linearGradient>
<linearGradient id="paint81_linear_122_130" x1="937.5" y1="-59" x2="937.5" y2="239.818" gradientUnits="userSpaceOnUse">
<stop stop-color="#F7DD43"/>
<stop offset="1" stop-color="#F7DD43" stop-opacity="0"/>
</linearGradient>
<linearGradient id="paint82_linear_122_130" x1="937.5" y1="-59" x2="937.5" y2="239.818" gradientUnits="userSpaceOnUse">
<stop stop-color="#F7DD43"/>
<stop offset="1" stop-color="#F7DD43" stop-opacity="0"/>
</linearGradient>
<linearGradient id="paint83_linear_122_130" x1="937.5" y1="-59" x2="937.5" y2="239.818" gradientUnits="userSpaceOnUse">
<stop stop-color="#F7DD43"/>
<stop offset="1" stop-color="#F7DD43" stop-opacity="0"/>
</linearGradient>
<linearGradient id="paint84_linear_122_130" x1="937.5" y1="-59" x2="937.5" y2="239.818" gradientUnits="userSpaceOnUse">
<stop stop-color="#F7DD43"/>
<stop offset="1" stop-color="#F7DD43" stop-opacity="0"/>
</linearGradient>
<linearGradient id="paint85_linear_122_130" x1="937.5" y1="-59" x2="937.5" y2="239.818" gradientUnits="userSpaceOnUse">
<stop stop-color="#F7DD43"/>
<stop offset="1" stop-color="#F7DD43" stop-opacity="0"/>
</linearGradient>
<linearGradient id="paint86_linear_122_130" x1="937.5" y1="-59" x2="937.5" y2="239.818" gradientUnits="userSpaceOnUse">
<stop stop-color="#F7DD43"/>
<stop offset="1" stop-color="#F7DD43" stop-opacity="0"/>
</linearGradient>
<linearGradient id="paint87_linear_122_130" x1="937.5" y1="-59" x2="937.5" y2="239.818" gradientUnits="userSpaceOnUse">
<stop stop-color="#F7DD43"/>
<stop offset="1" stop-color="#F7DD43" stop-opacity="0"/>
</linearGradient>
<linearGradient id="paint88_linear_122_130" x1="937.5" y1="-59" x2="937.5" y2="239.818" gradientUnits="userSpaceOnUse">
<stop stop-color="#F7DD43"/>
<stop offset="1" stop-color="#F7DD43" stop-opacity="0"/>
</linearGradient>
<linearGradient id="paint89_linear_122_130" x1="937.5" y1="-59" x2="937.5" y2="239.818" gradientUnits="userSpaceOnUse">
<stop stop-color="#F7DD43"/>
<stop offset="1" stop-color="#F7DD43" stop-opacity="0"/>
</linearGradient>
<linearGradient id="paint90_linear_122_130" x1="937.5" y1="-59" x2="937.5" y2="239.818" gradientUnits="userSpaceOnUse">
<stop stop-color="#F7DD43"/>
<stop offset="1" stop-color="#F7DD43" stop-opacity="0"/>
</linearGradient>
<linearGradient id="paint91_linear_122_130" x1="937.5" y1="-59" x2="937.5" y2="239.818" gradientUnits="userSpaceOnUse">
<stop stop-color="#F7DD43"/>
<stop offset="1" stop-color="#F7DD43" stop-opacity="0"/>
</linearGradient>
<linearGradient id="paint92_linear_122_130" x1="937.5" y1="-59" x2="937.5" y2="239.818" gradientUnits="userSpaceOnUse">
<stop stop-color="#F7DD43"/>
<stop offset="1" stop-color="#F7DD43" stop-opacity="0"/>
</linearGradient>
<linearGradient id="paint93_linear_122_130" x1="937.5" y1="-59" x2="937.5" y2="239.818" gradientUnits="userSpaceOnUse">
<stop stop-color="#F7DD43"/>
<stop offset="1" stop-color="#F7DD43" stop-opacity="0"/>
</linearGradient>
<clipPath id="clip0_122_130">
<rect width="1024" height="753" fill="white"/>
</clipPath>
</defs>
</svg>
