<svg width="271" height="248" viewBox="0 0 271 248" fill="none" xmlns="http://www.w3.org/2000/svg">
<g clip-path="url(#clip0_402_138)">
<path d="M25 50C38.8071 50 50 38.8071 50 25C50 11.1929 38.8071 0 25 0C11.1929 0 0 11.1929 0 25C0 38.8071 11.1929 50 25 50Z" fill="#D80027"/>
<path d="M38.0435 20.6522H29.3479V11.9565H20.6521V20.6522H11.9565V29.3479H20.6521V38.0435H29.3479V29.3479H38.0435V20.6522Z" fill="#F0F0F0"/>
</g>
<path d="M107.174 22.3652V27.041C107.174 28.8809 106.957 30.4805 106.523 31.8398C106.102 33.1992 105.492 34.3242 104.695 35.2148C103.91 36.1055 102.973 36.7676 101.883 37.2012C100.793 37.6348 99.5918 37.8516 98.2793 37.8516C97.2246 37.8516 96.2402 37.7168 95.3262 37.4473C94.4121 37.166 93.5859 36.7441 92.8477 36.1816C92.1211 35.6074 91.4941 34.8926 90.9668 34.0371C90.4395 33.1816 90.0352 32.1738 89.7539 31.0137C89.4727 29.8418 89.332 28.5176 89.332 27.041V22.3652C89.332 20.5137 89.543 18.9141 89.9648 17.5664C90.3984 16.207 91.0137 15.082 91.8105 14.1914C92.6074 13.3008 93.5508 12.6387 94.6406 12.2051C95.7305 11.7715 96.9316 11.5547 98.2441 11.5547C99.2988 11.5547 100.277 11.6953 101.18 11.9766C102.094 12.2461 102.92 12.668 103.658 13.2422C104.396 13.8047 105.023 14.5137 105.539 15.3691C106.066 16.2246 106.471 17.2383 106.752 18.4102C107.033 19.5703 107.174 20.8887 107.174 22.3652ZM101.25 27.7617V21.6094C101.25 20.7891 101.203 20.0742 101.109 19.4648C101.027 18.8555 100.898 18.3398 100.723 17.918C100.559 17.4961 100.354 17.1562 100.107 16.8984C99.8613 16.6289 99.5801 16.4355 99.2637 16.3184C98.959 16.1895 98.6191 16.125 98.2441 16.125C97.7754 16.125 97.3535 16.2246 96.9785 16.4238C96.6152 16.6113 96.3047 16.916 96.0469 17.3379C95.7891 17.7598 95.5898 18.3223 95.4492 19.0254C95.3203 19.7285 95.2559 20.5898 95.2559 21.6094V27.7617C95.2559 28.5938 95.2969 29.3203 95.3789 29.9414C95.4727 30.5508 95.6016 31.0723 95.7656 31.5059C95.9414 31.9277 96.1523 32.2734 96.3984 32.543C96.6445 32.8008 96.9258 32.9883 97.2422 33.1055C97.5586 33.2227 97.9043 33.2812 98.2793 33.2812C98.7363 33.2812 99.1465 33.1875 99.5098 33C99.873 32.8125 100.184 32.5078 100.441 32.0859C100.711 31.6523 100.91 31.084 101.039 30.3809C101.18 29.666 101.25 28.793 101.25 27.7617ZM128.074 11.9062V15.0703L118.512 37.5H112.254L121.834 16.4766H109.617V11.9062H128.074ZM131.66 34.7227C131.66 33.8789 131.965 33.1758 132.574 32.6133C133.184 32.0391 133.969 31.752 134.93 31.752C135.902 31.752 136.688 32.0391 137.285 32.6133C137.895 33.1758 138.199 33.8789 138.199 34.7227C138.199 35.5664 137.895 36.2754 137.285 36.8496C136.688 37.4121 135.902 37.6934 134.93 37.6934C133.969 37.6934 133.184 37.4121 132.574 36.8496C131.965 36.2754 131.66 35.5664 131.66 34.7227ZM131.66 20.6953C131.66 19.8516 131.965 19.1484 132.574 18.5859C133.184 18.0117 133.969 17.7246 134.93 17.7246C135.902 17.7246 136.688 18.0117 137.285 18.5859C137.895 19.1484 138.199 19.8516 138.199 20.6953C138.199 21.5391 137.895 22.248 137.285 22.8223C136.688 23.3848 135.902 23.666 134.93 23.666C133.969 23.666 133.184 23.3848 132.574 22.8223C131.965 22.248 131.66 21.5391 131.66 20.6953ZM159.768 22.3652V27.041C159.768 28.8809 159.551 30.4805 159.117 31.8398C158.695 33.1992 158.086 34.3242 157.289 35.2148C156.504 36.1055 155.566 36.7676 154.477 37.2012C153.387 37.6348 152.186 37.8516 150.873 37.8516C149.818 37.8516 148.834 37.7168 147.92 37.4473C147.006 37.166 146.18 36.7441 145.441 36.1816C144.715 35.6074 144.088 34.8926 143.561 34.0371C143.033 33.1816 142.629 32.1738 142.348 31.0137C142.066 29.8418 141.926 28.5176 141.926 27.041V22.3652C141.926 20.5137 142.137 18.9141 142.559 17.5664C142.992 16.207 143.607 15.082 144.404 14.1914C145.201 13.3008 146.145 12.6387 147.234 12.2051C148.324 11.7715 149.525 11.5547 150.838 11.5547C151.893 11.5547 152.871 11.6953 153.773 11.9766C154.688 12.2461 155.514 12.668 156.252 13.2422C156.99 13.8047 157.617 14.5137 158.133 15.3691C158.66 16.2246 159.064 17.2383 159.346 18.4102C159.627 19.5703 159.768 20.8887 159.768 22.3652ZM153.844 27.7617V21.6094C153.844 20.7891 153.797 20.0742 153.703 19.4648C153.621 18.8555 153.492 18.3398 153.316 17.918C153.152 17.4961 152.947 17.1562 152.701 16.8984C152.455 16.6289 152.174 16.4355 151.857 16.3184C151.553 16.1895 151.213 16.125 150.838 16.125C150.369 16.125 149.947 16.2246 149.572 16.4238C149.209 16.6113 148.898 16.916 148.641 17.3379C148.383 17.7598 148.184 18.3223 148.043 19.0254C147.914 19.7285 147.85 20.5898 147.85 21.6094V27.7617C147.85 28.5938 147.891 29.3203 147.973 29.9414C148.066 30.5508 148.195 31.0723 148.359 31.5059C148.535 31.9277 148.746 32.2734 148.992 32.543C149.238 32.8008 149.52 32.9883 149.836 33.1055C150.152 33.2227 150.498 33.2812 150.873 33.2812C151.33 33.2812 151.74 33.1875 152.104 33C152.467 32.8125 152.777 32.5078 153.035 32.0859C153.305 31.6523 153.504 31.084 153.633 30.3809C153.773 29.666 153.844 28.793 153.844 27.7617ZM180.65 22.3652V27.041C180.65 28.8809 180.434 30.4805 180 31.8398C179.578 33.1992 178.969 34.3242 178.172 35.2148C177.387 36.1055 176.449 36.7676 175.359 37.2012C174.27 37.6348 173.068 37.8516 171.756 37.8516C170.701 37.8516 169.717 37.7168 168.803 37.4473C167.889 37.166 167.062 36.7441 166.324 36.1816C165.598 35.6074 164.971 34.8926 164.443 34.0371C163.916 33.1816 163.512 32.1738 163.23 31.0137C162.949 29.8418 162.809 28.5176 162.809 27.041V22.3652C162.809 20.5137 163.02 18.9141 163.441 17.5664C163.875 16.207 164.49 15.082 165.287 14.1914C166.084 13.3008 167.027 12.6387 168.117 12.2051C169.207 11.7715 170.408 11.5547 171.721 11.5547C172.775 11.5547 173.754 11.6953 174.656 11.9766C175.57 12.2461 176.396 12.668 177.135 13.2422C177.873 13.8047 178.5 14.5137 179.016 15.3691C179.543 16.2246 179.947 17.2383 180.229 18.4102C180.51 19.5703 180.65 20.8887 180.65 22.3652ZM174.727 27.7617V21.6094C174.727 20.7891 174.68 20.0742 174.586 19.4648C174.504 18.8555 174.375 18.3398 174.199 17.918C174.035 17.4961 173.83 17.1562 173.584 16.8984C173.338 16.6289 173.057 16.4355 172.74 16.3184C172.436 16.1895 172.096 16.125 171.721 16.125C171.252 16.125 170.83 16.2246 170.455 16.4238C170.092 16.6113 169.781 16.916 169.523 17.3379C169.266 17.7598 169.066 18.3223 168.926 19.0254C168.797 19.7285 168.732 20.5898 168.732 21.6094V27.7617C168.732 28.5938 168.773 29.3203 168.855 29.9414C168.949 30.5508 169.078 31.0723 169.242 31.5059C169.418 31.9277 169.629 32.2734 169.875 32.543C170.121 32.8008 170.402 32.9883 170.719 33.1055C171.035 33.2227 171.381 33.2812 171.756 33.2812C172.213 33.2812 172.623 33.1875 172.986 33C173.35 32.8125 173.66 32.5078 173.918 32.0859C174.188 31.6523 174.387 31.084 174.516 30.3809C174.656 29.666 174.727 28.793 174.727 27.7617Z" fill="#E1E1E6"/>
<g clip-path="url(#clip1_402_138)">
<path d="M255.87 2.48066C252.583 0.891406 248.896 0 245 0C241.104 0 237.417 0.891406 234.13 2.48066L231.957 25L234.13 47.5193C237.417 49.1086 241.104 50 245 50C248.896 50 252.583 49.1086 255.87 47.5193L258.043 25L255.87 2.48066Z" fill="#D80027"/>
<path d="M245 16.3044L247.158 22.9469H254.143L248.492 27.0527L250.651 33.6956L245 29.59L239.349 33.6956L241.508 27.0527L235.857 22.9469H242.841L245 16.3044Z" fill="#FFDA44"/>
<path d="M234.13 2.48157C225.768 6.52512 220 15.0885 220 25C220 34.9115 225.768 43.4749 234.13 47.5185V2.48157Z" fill="#496E2D"/>
<path d="M255.87 2.48157V47.5185C264.232 43.4749 270 34.9114 270 25C270 15.0886 264.232 6.52512 255.87 2.48157Z" fill="#FFDA44"/>
</g>
<line x1="0.00241591" y1="73.5" x2="270.001" y2="74.4091" stroke="#323238"/>
<g clip-path="url(#clip2_402_138)">
<path d="M0 123.909C0 134.658 6.78438 143.822 16.3042 147.354L18.4782 123.909L16.3042 100.464C6.78438 103.996 0 113.16 0 123.909Z" fill="#6DA544"/>
<path d="M50 123.909C50 110.102 38.807 98.9091 25 98.9091C21.942 98.9091 19.0126 99.4592 16.3042 100.464V147.354C19.0126 148.359 21.942 148.909 25 148.909C38.807 148.909 50 137.716 50 123.909Z" fill="#D80027"/>
<path d="M16.3044 132.605C21.1068 132.605 25 128.711 25 123.909C25 119.107 21.1068 115.213 16.3044 115.213C11.5019 115.213 7.60876 119.107 7.60876 123.909C7.60876 128.711 11.5019 132.605 16.3044 132.605Z" fill="#FFDA44"/>
<path d="M11.4131 119.561V124.996C11.4131 127.697 13.6029 129.887 16.3044 129.887C19.0059 129.887 21.1957 127.697 21.1957 124.996V119.561H11.4131Z" fill="#D80027"/>
<path d="M16.3044 126.626C15.4054 126.626 14.674 125.895 14.674 124.996V122.822H17.9348V124.996C17.9348 125.895 17.2033 126.626 16.3044 126.626Z" fill="#F0F0F0"/>
</g>
<path d="M102.516 110.815V136.409H96.5918V117.495L90.7559 119.2V114.7L101.971 110.815H102.516ZM115.682 121.134H118.564C119.303 121.134 119.906 121.005 120.375 120.747C120.855 120.477 121.213 120.102 121.447 119.622C121.682 119.13 121.799 118.55 121.799 117.882C121.799 117.366 121.688 116.891 121.465 116.458C121.254 116.024 120.926 115.679 120.48 115.421C120.035 115.151 119.467 115.016 118.775 115.016C118.307 115.016 117.85 115.116 117.404 115.315C116.959 115.503 116.59 115.772 116.297 116.124C116.016 116.475 115.875 116.903 115.875 117.407H109.934C109.934 115.954 110.332 114.712 111.129 113.681C111.938 112.638 112.998 111.841 114.311 111.29C115.635 110.727 117.059 110.446 118.582 110.446C120.398 110.446 121.992 110.727 123.363 111.29C124.734 111.841 125.801 112.661 126.562 113.751C127.336 114.829 127.723 116.165 127.723 117.759C127.723 118.638 127.518 119.464 127.107 120.237C126.697 121.011 126.123 121.69 125.385 122.276C124.646 122.862 123.779 123.325 122.783 123.665C121.799 123.993 120.721 124.157 119.549 124.157H115.682V121.134ZM115.682 125.546V122.593H119.549C120.826 122.593 121.992 122.739 123.047 123.032C124.102 123.313 125.01 123.735 125.771 124.298C126.533 124.86 127.119 125.557 127.529 126.39C127.939 127.21 128.145 128.153 128.145 129.22C128.145 130.415 127.904 131.481 127.424 132.419C126.943 133.356 126.27 134.147 125.402 134.792C124.535 135.436 123.521 135.929 122.361 136.268C121.201 136.597 119.941 136.761 118.582 136.761C117.516 136.761 116.449 136.62 115.383 136.339C114.316 136.046 113.344 135.6 112.465 135.003C111.586 134.393 110.877 133.62 110.338 132.682C109.811 131.733 109.547 130.602 109.547 129.29H115.488C115.488 129.829 115.635 130.321 115.928 130.766C116.232 131.2 116.637 131.546 117.141 131.804C117.645 132.061 118.189 132.19 118.775 132.19C119.502 132.19 120.117 132.056 120.621 131.786C121.137 131.505 121.529 131.13 121.799 130.661C122.068 130.192 122.203 129.671 122.203 129.097C122.203 128.229 122.057 127.538 121.764 127.022C121.482 126.507 121.066 126.132 120.516 125.897C119.977 125.663 119.326 125.546 118.564 125.546H115.682ZM131.66 133.632C131.66 132.788 131.965 132.085 132.574 131.522C133.184 130.948 133.969 130.661 134.93 130.661C135.902 130.661 136.688 130.948 137.285 131.522C137.895 132.085 138.199 132.788 138.199 133.632C138.199 134.475 137.895 135.184 137.285 135.759C136.688 136.321 135.902 136.602 134.93 136.602C133.969 136.602 133.184 136.321 132.574 135.759C131.965 135.184 131.66 134.475 131.66 133.632ZM131.66 119.604C131.66 118.761 131.965 118.057 132.574 117.495C133.184 116.921 133.969 116.634 134.93 116.634C135.902 116.634 136.688 116.921 137.285 117.495C137.895 118.057 138.199 118.761 138.199 119.604C138.199 120.448 137.895 121.157 137.285 121.731C136.688 122.294 135.902 122.575 134.93 122.575C133.969 122.575 133.184 122.294 132.574 121.731C131.965 121.157 131.66 120.448 131.66 119.604ZM159.768 121.274V125.95C159.768 127.79 159.551 129.39 159.117 130.749C158.695 132.108 158.086 133.233 157.289 134.124C156.504 135.015 155.566 135.677 154.477 136.11C153.387 136.544 152.186 136.761 150.873 136.761C149.818 136.761 148.834 136.626 147.92 136.356C147.006 136.075 146.18 135.653 145.441 135.091C144.715 134.516 144.088 133.802 143.561 132.946C143.033 132.091 142.629 131.083 142.348 129.923C142.066 128.751 141.926 127.427 141.926 125.95V121.274C141.926 119.423 142.137 117.823 142.559 116.475C142.992 115.116 143.607 113.991 144.404 113.1C145.201 112.21 146.145 111.548 147.234 111.114C148.324 110.681 149.525 110.464 150.838 110.464C151.893 110.464 152.871 110.604 153.773 110.886C154.688 111.155 155.514 111.577 156.252 112.151C156.99 112.714 157.617 113.423 158.133 114.278C158.66 115.134 159.064 116.147 159.346 117.319C159.627 118.479 159.768 119.798 159.768 121.274ZM153.844 126.671V120.518C153.844 119.698 153.797 118.983 153.703 118.374C153.621 117.765 153.492 117.249 153.316 116.827C153.152 116.405 152.947 116.065 152.701 115.807C152.455 115.538 152.174 115.345 151.857 115.227C151.553 115.099 151.213 115.034 150.838 115.034C150.369 115.034 149.947 115.134 149.572 115.333C149.209 115.52 148.898 115.825 148.641 116.247C148.383 116.669 148.184 117.231 148.043 117.934C147.914 118.638 147.85 119.499 147.85 120.518V126.671C147.85 127.503 147.891 128.229 147.973 128.85C148.066 129.46 148.195 129.981 148.359 130.415C148.535 130.837 148.746 131.182 148.992 131.452C149.238 131.71 149.52 131.897 149.836 132.015C150.152 132.132 150.498 132.19 150.873 132.19C151.33 132.19 151.74 132.097 152.104 131.909C152.467 131.722 152.777 131.417 153.035 130.995C153.305 130.561 153.504 129.993 153.633 129.29C153.773 128.575 153.844 127.702 153.844 126.671ZM180.65 121.274V125.95C180.65 127.79 180.434 129.39 180 130.749C179.578 132.108 178.969 133.233 178.172 134.124C177.387 135.015 176.449 135.677 175.359 136.11C174.27 136.544 173.068 136.761 171.756 136.761C170.701 136.761 169.717 136.626 168.803 136.356C167.889 136.075 167.062 135.653 166.324 135.091C165.598 134.516 164.971 133.802 164.443 132.946C163.916 132.091 163.512 131.083 163.23 129.923C162.949 128.751 162.809 127.427 162.809 125.95V121.274C162.809 119.423 163.02 117.823 163.441 116.475C163.875 115.116 164.49 113.991 165.287 113.1C166.084 112.21 167.027 111.548 168.117 111.114C169.207 110.681 170.408 110.464 171.721 110.464C172.775 110.464 173.754 110.604 174.656 110.886C175.57 111.155 176.396 111.577 177.135 112.151C177.873 112.714 178.5 113.423 179.016 114.278C179.543 115.134 179.947 116.147 180.229 117.319C180.51 118.479 180.65 119.798 180.65 121.274ZM174.727 126.671V120.518C174.727 119.698 174.68 118.983 174.586 118.374C174.504 117.765 174.375 117.249 174.199 116.827C174.035 116.405 173.83 116.065 173.584 115.807C173.338 115.538 173.057 115.345 172.74 115.227C172.436 115.099 172.096 115.034 171.721 115.034C171.252 115.034 170.83 115.134 170.455 115.333C170.092 115.52 169.781 115.825 169.523 116.247C169.266 116.669 169.066 117.231 168.926 117.934C168.797 118.638 168.732 119.499 168.732 120.518V126.671C168.732 127.503 168.773 128.229 168.855 128.85C168.949 129.46 169.078 129.981 169.242 130.415C169.418 130.837 169.629 131.182 169.875 131.452C170.121 131.71 170.402 131.897 170.719 132.015C171.035 132.132 171.381 132.19 171.756 132.19C172.213 132.19 172.623 132.097 172.986 131.909C173.35 131.722 173.66 131.417 173.918 130.995C174.188 130.561 174.387 129.993 174.516 129.29C174.656 128.575 174.727 127.702 174.727 126.671Z" fill="#E1E1E6"/>
<g clip-path="url(#clip3_402_138)">
<path d="M220 123.909C220 126.967 220.55 129.896 221.555 132.605L245 133.692L268.445 132.605C269.45 129.896 270 126.967 270 123.909C270 120.851 269.45 117.922 268.445 115.213L245 114.126L221.555 115.213C220.55 117.922 220 120.851 220 123.909V123.909Z" fill="#FFDA44"/>
<path d="M245 98.9091C234.251 98.9091 225.087 105.693 221.555 115.213H268.445C264.913 105.693 255.749 98.9091 245 98.9091V98.9091Z" fill="#D80027"/>
<path d="M268.445 132.605H221.555C225.087 142.125 234.251 148.909 245 148.909C255.749 148.909 264.913 142.125 268.445 132.605Z" fill="#496E2D"/>
<path d="M245 115.213L247.158 121.856H254.143L248.492 125.962L250.651 132.605L245 128.499L239.349 132.605L241.507 125.962L235.857 121.856H242.842L245 115.213Z" fill="black"/>
</g>
<line x1="0.00241591" y1="172.409" x2="270.001" y2="173.318" stroke="#323238"/>
<g clip-path="url(#clip4_402_138)">
<path d="M25 247.818C38.8071 247.818 50 236.625 50 222.818C50 209.011 38.8071 197.818 25 197.818C11.1929 197.818 0 209.011 0 222.818C0 236.625 11.1929 247.818 25 247.818Z" fill="#6DA544"/>
<path d="M25 207.601L45.6521 222.818L25 238.036L4.34784 222.818L25 207.601Z" fill="#FFDA44"/>
<path d="M25 231.514C29.8024 231.514 33.6956 227.621 33.6956 222.818C33.6956 218.016 29.8024 214.123 25 214.123C20.1975 214.123 16.3044 218.016 16.3044 222.818C16.3044 227.621 20.1975 231.514 25 231.514Z" fill="#F0F0F0"/>
<path d="M20.6521 222.275C19.14 222.275 17.6808 222.505 16.3071 222.931C16.368 227.681 20.2355 231.514 25 231.514C27.9461 231.514 30.548 230.047 32.121 227.806C29.4299 224.437 25.2892 222.275 20.6521 222.275V222.275Z" fill="#0052B4"/>
<path d="M33.5345 224.484C33.6392 223.945 33.6957 223.388 33.6957 222.818C33.6957 218.016 29.8025 214.123 25.0001 214.123C21.4167 214.123 18.3405 216.291 17.0093 219.386C18.186 219.142 19.4044 219.014 20.6523 219.014C25.7028 219.014 30.2718 221.113 33.5345 224.484V224.484Z" fill="#0052B4"/>
</g>
<path d="M102.516 209.724V235.318H96.5918V216.404L90.7559 218.109V213.609L101.971 209.724H102.516ZM123.627 209.355H124.576V214.013H124.26C123.123 214.013 122.057 214.172 121.061 214.488C120.076 214.805 119.209 215.285 118.459 215.93C117.721 216.562 117.141 217.365 116.719 218.338C116.309 219.31 116.104 220.453 116.104 221.765V226.248C116.104 227.068 116.174 227.783 116.314 228.392C116.455 229.002 116.666 229.506 116.947 229.904C117.229 230.303 117.574 230.601 117.984 230.801C118.406 231 118.893 231.099 119.443 231.099C119.9 231.099 120.322 230.994 120.709 230.783C121.096 230.572 121.43 230.273 121.711 229.887C122.004 229.5 122.227 229.049 122.379 228.533C122.531 228.017 122.607 227.455 122.607 226.846C122.607 226.189 122.525 225.597 122.361 225.07C122.197 224.543 121.963 224.097 121.658 223.734C121.365 223.359 121.008 223.078 120.586 222.89C120.176 222.691 119.725 222.592 119.232 222.592C118.482 222.592 117.844 222.762 117.316 223.101C116.801 223.43 116.408 223.851 116.139 224.367C115.881 224.883 115.752 225.404 115.752 225.931L114.328 224.49C114.305 223.787 114.439 223.06 114.732 222.31C115.025 221.56 115.465 220.863 116.051 220.219C116.637 219.574 117.369 219.053 118.248 218.654C119.127 218.256 120.146 218.056 121.307 218.056C122.479 218.056 123.51 218.279 124.4 218.724C125.303 219.17 126.059 219.791 126.668 220.588C127.289 221.385 127.758 222.316 128.074 223.383C128.391 224.449 128.549 225.603 128.549 226.846C128.549 228.099 128.326 229.265 127.881 230.344C127.447 231.41 126.832 232.342 126.035 233.138C125.238 233.935 124.295 234.556 123.205 235.002C122.115 235.447 120.914 235.67 119.602 235.67C118.254 235.67 117.006 235.441 115.857 234.984C114.721 234.515 113.725 233.842 112.869 232.963C112.025 232.072 111.363 230.988 110.883 229.711C110.414 228.433 110.18 226.986 110.18 225.369V223.207C110.18 221.015 110.537 219.064 111.252 217.353C111.979 215.642 112.963 214.195 114.205 213.012C115.459 211.816 116.895 210.908 118.512 210.287C120.129 209.666 121.834 209.355 123.627 209.355ZM131.66 232.541C131.66 231.697 131.965 230.994 132.574 230.431C133.184 229.857 133.969 229.57 134.93 229.57C135.902 229.57 136.688 229.857 137.285 230.431C137.895 230.994 138.199 231.697 138.199 232.541C138.199 233.385 137.895 234.094 137.285 234.668C136.688 235.23 135.902 235.512 134.93 235.512C133.969 235.512 133.184 235.23 132.574 234.668C131.965 234.094 131.66 233.385 131.66 232.541ZM131.66 218.513C131.66 217.67 131.965 216.967 132.574 216.404C133.184 215.83 133.969 215.543 134.93 215.543C135.902 215.543 136.688 215.83 137.285 216.404C137.895 216.967 138.199 217.67 138.199 218.513C138.199 219.357 137.895 220.066 137.285 220.64C136.688 221.203 135.902 221.484 134.93 221.484C133.969 221.484 133.184 221.203 132.574 220.64C131.965 220.066 131.66 219.357 131.66 218.513ZM159.768 220.183V224.859C159.768 226.699 159.551 228.299 159.117 229.658C158.695 231.017 158.086 232.142 157.289 233.033C156.504 233.924 155.566 234.586 154.477 235.019C153.387 235.453 152.186 235.67 150.873 235.67C149.818 235.67 148.834 235.535 147.92 235.265C147.006 234.984 146.18 234.562 145.441 234C144.715 233.426 144.088 232.711 143.561 231.855C143.033 231 142.629 229.992 142.348 228.832C142.066 227.66 141.926 226.336 141.926 224.859V220.183C141.926 218.332 142.137 216.732 142.559 215.385C142.992 214.025 143.607 212.9 144.404 212.01C145.201 211.119 146.145 210.457 147.234 210.023C148.324 209.59 149.525 209.373 150.838 209.373C151.893 209.373 152.871 209.513 153.773 209.795C154.688 210.064 155.514 210.486 156.252 211.06C156.99 211.623 157.617 212.332 158.133 213.187C158.66 214.043 159.064 215.056 159.346 216.228C159.627 217.388 159.768 218.707 159.768 220.183ZM153.844 225.58V219.428C153.844 218.607 153.797 217.892 153.703 217.283C153.621 216.674 153.492 216.158 153.316 215.736C153.152 215.314 152.947 214.974 152.701 214.717C152.455 214.447 152.174 214.254 151.857 214.137C151.553 214.008 151.213 213.943 150.838 213.943C150.369 213.943 149.947 214.043 149.572 214.242C149.209 214.43 148.898 214.734 148.641 215.156C148.383 215.578 148.184 216.14 148.043 216.844C147.914 217.547 147.85 218.408 147.85 219.428V225.58C147.85 226.412 147.891 227.138 147.973 227.76C148.066 228.369 148.195 228.89 148.359 229.324C148.535 229.746 148.746 230.092 148.992 230.361C149.238 230.619 149.52 230.806 149.836 230.924C150.152 231.041 150.498 231.099 150.873 231.099C151.33 231.099 151.74 231.006 152.104 230.818C152.467 230.631 152.777 230.326 153.035 229.904C153.305 229.471 153.504 228.902 153.633 228.199C153.773 227.484 153.844 226.611 153.844 225.58ZM180.65 220.183V224.859C180.65 226.699 180.434 228.299 180 229.658C179.578 231.017 178.969 232.142 178.172 233.033C177.387 233.924 176.449 234.586 175.359 235.019C174.27 235.453 173.068 235.67 171.756 235.67C170.701 235.67 169.717 235.535 168.803 235.265C167.889 234.984 167.062 234.562 166.324 234C165.598 233.426 164.971 232.711 164.443 231.855C163.916 231 163.512 229.992 163.23 228.832C162.949 227.66 162.809 226.336 162.809 224.859V220.183C162.809 218.332 163.02 216.732 163.441 215.385C163.875 214.025 164.49 212.9 165.287 212.01C166.084 211.119 167.027 210.457 168.117 210.023C169.207 209.59 170.408 209.373 171.721 209.373C172.775 209.373 173.754 209.513 174.656 209.795C175.57 210.064 176.396 210.486 177.135 211.06C177.873 211.623 178.5 212.332 179.016 213.187C179.543 214.043 179.947 215.056 180.229 216.228C180.51 217.388 180.65 218.707 180.65 220.183ZM174.727 225.58V219.428C174.727 218.607 174.68 217.892 174.586 217.283C174.504 216.674 174.375 216.158 174.199 215.736C174.035 215.314 173.83 214.974 173.584 214.717C173.338 214.447 173.057 214.254 172.74 214.137C172.436 214.008 172.096 213.943 171.721 213.943C171.252 213.943 170.83 214.043 170.455 214.242C170.092 214.43 169.781 214.734 169.523 215.156C169.266 215.578 169.066 216.14 168.926 216.844C168.797 217.547 168.732 218.408 168.732 219.428V225.58C168.732 226.412 168.773 227.138 168.855 227.76C168.949 228.369 169.078 228.89 169.242 229.324C169.418 229.746 169.629 230.092 169.875 230.361C170.121 230.619 170.402 230.806 170.719 230.924C171.035 231.041 171.381 231.099 171.756 231.099C172.213 231.099 172.623 231.006 172.986 230.818C173.35 230.631 173.66 230.326 173.918 229.904C174.188 229.471 174.387 228.902 174.516 228.199C174.656 227.484 174.727 226.611 174.727 225.58Z" fill="#E1E1E6"/>
<g clip-path="url(#clip5_402_138)">
<path d="M245 247.818C258.807 247.818 270 236.625 270 222.818C270 209.011 258.807 197.818 245 197.818C231.193 197.818 220 209.011 220 222.818C220 236.625 231.193 247.818 245 247.818Z" fill="#F0F0F0"/>
<path d="M245 197.818C231.193 197.818 220 209.011 220 222.818C220 225.876 220.55 228.806 221.555 231.514H268.445C269.45 228.806 270 225.876 270 222.818C270 209.011 258.807 197.818 245 197.818Z" fill="#0052B4"/>
<path d="M245 197.818C234.251 197.818 225.087 204.603 221.555 214.123H268.445C264.913 204.603 255.749 197.818 245 197.818V197.818Z" fill="#D80027"/>
<path d="M226.465 211.949V224.42C226.465 231.514 235.732 233.688 235.732 233.688C235.732 233.688 245 231.514 245 224.42V211.949H226.465Z" fill="#D80027"/>
<path d="M230.297 214.123H241.167V209.775L238.993 210.862L235.732 207.601L232.471 210.862L230.297 209.775V214.123Z" fill="#FFDA44"/>
<path d="M242.826 226.156L235.761 219.091L228.696 226.156L231.001 228.462L235.761 223.703L240.52 228.462L242.826 226.156Z" fill="#FFDA44"/>
<path d="M242.826 219.557H239.53C239.715 219.237 239.823 218.867 239.823 218.471C239.823 217.27 238.849 216.297 237.649 216.297C236.819 216.297 236.099 216.761 235.732 217.444C235.366 216.761 234.645 216.297 233.816 216.297C232.615 216.297 231.642 217.27 231.642 218.471C231.642 218.867 231.75 219.238 231.935 219.557H228.696C228.696 220.758 229.741 221.731 230.942 221.731H230.869C230.869 222.932 231.843 223.905 233.043 223.905C233.043 224.968 233.807 225.851 234.815 226.041L233.102 229.908C233.923 230.242 234.82 230.427 235.761 230.427C236.702 230.427 237.599 230.242 238.419 229.908L236.707 226.041C237.715 225.852 238.478 224.968 238.478 223.905C239.679 223.905 240.652 222.932 240.652 221.731H240.58C241.78 221.731 242.826 220.758 242.826 219.557V219.557Z" fill="#F0F0F0"/>
</g>
<defs>
<clipPath id="clip0_402_138">
<rect width="50" height="50" fill="white"/>
</clipPath>
<clipPath id="clip1_402_138">
<rect width="50" height="50" fill="white" transform="translate(220)"/>
</clipPath>
<clipPath id="clip2_402_138">
<rect width="50" height="50" fill="white" transform="translate(0 98.9091)"/>
</clipPath>
<clipPath id="clip3_402_138">
<rect width="50" height="50" fill="white" transform="translate(220 98.9091)"/>
</clipPath>
<clipPath id="clip4_402_138">
<rect width="50" height="50" fill="white" transform="translate(0 197.818)"/>
</clipPath>
<clipPath id="clip5_402_138">
<rect width="50" height="50" fill="white" transform="translate(220 197.818)"/>
</clipPath>
</defs>
</svg>
